<?xml version="1.0" standalone="no"?>
<!DOCTYPE svg PUBLIC "-//W3C//DTD SVG 20010904//EN"
 "http://www.w3.org/TR/2001/REC-SVG-20010904/DTD/svg10.dtd">
<svg version="1.0" xmlns="http://www.w3.org/2000/svg"
 width="1600.000000pt" height="900.000000pt" viewBox="0 0 1600.000000 900.000000"
 preserveAspectRatio="xMidYMid meet">

<g transform="translate(0.000000,900.000000) scale(0.100000,-0.100000)"
fill="#000000" stroke="none">
<path d="M0 4500 l0 -4500 1345 0 c1274 0 1345 1 1346 18 1 9 2 54 3 99 1 75
4 83 28 103 l27 20 -3 -23 c-1 -12 -5 -28 -9 -34 -4 -6 -3 -14 1 -17 5 -3 5
-31 1 -63 -5 -36 -4 -62 2 -70 6 -7 8 -17 4 -23 -4 -7 345 -10 1164 -10 652 0
1171 4 1171 9 0 5 7 12 16 15 12 4 15 2 10 -9 -5 -13 179 -15 1689 -15 l1695
0 1 23 0 22 9 -22 c9 -21 16 -23 92 -23 64 0 79 3 70 12 -18 18 -14 28 12 28
19 0 23 -4 19 -20 -5 -18 0 -20 45 -20 47 0 50 1 56 31 5 27 8 30 21 19 8 -7
15 -20 14 -29 0 -12 -2 -11 -9 4 -8 19 -9 19 -9 -2 -1 -19 4 -23 29 -23 25 0
30 4 29 23 0 21 -1 21 -9 2 -6 -13 -9 -15 -9 -5 -1 23 19 48 26 33 8 -20 23
-15 23 7 0 11 5 20 10 20 12 0 13 -30 1 -49 -5 -7 -14 -10 -20 -7 -6 4 -11 0
-11 -8 0 -12 11 -16 51 -16 45 0 50 2 44 19 -7 23 24 45 49 35 18 -7 21 7 5
23 -8 8 -8 13 0 17 6 4 11 0 11 -10 0 -13 6 -15 34 -10 24 5 37 2 46 -9 17
-20 32 -19 29 3 -3 30 1 42 12 42 6 0 9 -17 7 -43 -2 -34 -6 -41 -20 -39 -11
2 -18 -3 -18 -13 0 -13 18 -15 119 -15 114 0 119 1 114 20 -3 11 -10 20 -17
20 -6 0 -4 5 4 10 13 9 13 12 -2 21 -22 12 -24 39 -3 39 8 0 15 -7 15 -15 0
-11 12 -15 50 -15 43 0 50 3 50 20 0 11 5 20 10 20 6 0 10 9 10 20 0 23 3 24
30 8 14 -9 23 -10 28 -2 4 6 21 10 37 9 17 -1 36 2 42 7 7 6 20 8 28 4 10 -3
30 9 55 34 43 43 51 63 23 58 -10 -2 -19 4 -21 13 -2 11 3 16 15 15 21 -1 30
33 11 45 -10 8 -9 12 6 24 25 19 15 57 -21 81 -27 18 -32 20 -53 23 -13 1 -13
61 -1 61 5 0 12 -6 14 -12 3 -7 6 -1 6 13 1 15 8 32 16 39 8 7 12 17 9 22 -3
5 -9 7 -12 4 -6 -6 -42 43 -42 57 0 17 62 30 170 34 144 5 147 7 148 112 0 53
6 91 17 115 10 20 20 35 22 33 6 -7 9 -176 3 -172 -3 2 -4 -12 -2 -31 l4 -34
112 -1 c93 0 231 -14 188 -18 -8 -1 -12 -12 -10 -28 2 -21 -1 -27 -12 -23 -8
2 -37 4 -65 5 -46 0 -50 -2 -48 -22 2 -13 -2 -23 -8 -23 -6 0 -8 -9 -4 -21 5
-14 -1 -27 -19 -44 -17 -16 -26 -35 -26 -55 0 -40 1 -35 -15 -80 -8 -23 -10
-38 -5 -35 14 9 12 -10 -4 -50 -13 -29 -13 -33 0 -28 10 4 14 -3 14 -23 0 -55
10 -71 51 -83 21 -7 39 -16 39 -21 0 -6 4 -10 9 -10 13 0 31 88 26 132 -2 30
2 40 20 52 30 19 39 49 25 76 -7 14 -17 19 -29 15 -15 -4 -20 1 -23 24 -6 41
7 70 29 65 12 -3 26 7 42 28 l23 33 -6 -282 -6 -283 1936 0 c1287 0 1933 3
1929 10 -3 5 -15 10 -26 10 -11 0 -22 7 -25 15 -3 8 -26 26 -50 40 -24 14 -44
30 -44 35 0 6 -5 10 -12 10 -6 0 -26 11 -44 25 -18 14 -37 25 -42 25 -6 0 -12
6 -15 14 -3 8 -23 22 -44 32 -21 10 -44 26 -51 36 -7 10 -18 18 -24 18 -6 0
-24 12 -42 26 -32 27 -80 62 -141 104 -20 14 -51 37 -68 53 -17 15 -39 27 -49
27 -9 0 -22 9 -28 20 -6 10 -27 27 -48 37 -20 9 -41 23 -45 30 -4 7 -15 13
-23 13 -18 0 -58 28 -110 77 -19 18 -41 33 -48 33 -8 0 -24 21 -37 47 l-22 46
-19 -24 c-20 -23 -20 -42 -3 -112 6 -23 5 -26 -10 -21 -14 6 -16 3 -10 -14 4
-13 2 -22 -4 -22 -6 0 -11 5 -11 10 0 6 -9 29 -20 52 -24 50 -31 217 -10 243
16 19 31 20 24 0 -4 -8 -1 -15 4 -15 6 0 14 9 17 20 3 11 11 20 16 20 5 0 9
32 9 70 0 57 -3 70 -16 70 -11 0 -14 6 -9 21 5 14 3 20 -7 18 -7 -1 -35 7 -61
19 -61 27 -67 27 -67 0 -1 -13 -2 -49 -3 -80 -1 -32 1 -58 5 -58 5 0 8 -7 8
-15 0 -8 4 -15 8 -15 12 0 13 -68 2 -75 -12 -7 -55 16 -98 52 -32 28 -33 29
-23 78 17 85 23 178 12 171 -6 -4 -12 13 -16 41 -10 79 -11 80 -19 25 -6 -38
-4 -57 5 -68 19 -24 16 -113 -7 -161 -19 -43 -19 -43 -48 -28 -15 8 -35 15
-42 15 -8 0 -17 7 -20 15 -4 8 -12 15 -19 15 -6 0 -20 9 -30 20 -10 11 -23 20
-28 20 -5 0 -29 16 -53 35 -23 19 -46 35 -50 35 -7 0 -13 4 -67 54 -15 14 -32
26 -37 26 -5 0 -18 14 -30 30 -12 17 -27 30 -35 30 -7 0 -20 11 -29 25 -9 14
-13 25 -8 25 4 0 6 33 3 73 -2 39 -5 91 -5 114 0 23 -4 39 -8 37 -5 -3 -11 2
-14 11 -5 12 -9 13 -20 4 -8 -6 -14 -17 -14 -24 0 -7 -7 -15 -15 -19 -8 -3
-15 -14 -15 -25 0 -29 -21 -71 -35 -71 -24 0 -36 26 -25 54 13 36 13 41 -5 26
-8 -7 -15 -28 -15 -46 0 -26 -4 -32 -15 -28 -8 4 -15 15 -15 25 0 10 -4 19
-10 19 -5 0 -10 -7 -10 -15 0 -24 -33 -85 -46 -85 -25 0 -30 137 -8 252 5 27
3 38 -6 38 -7 0 -10 -7 -6 -16 3 -8 2 -12 -4 -9 -5 3 -9 23 -8 43 1 20 -2 118
-6 217 -4 99 -11 396 -16 661 -5 265 -13 492 -18 504 l-9 24 -7 -27 c-3 -15
-1 -149 5 -298 11 -277 9 -319 -16 -319 -8 0 -15 -4 -15 -10 0 -5 -5 -10 -11
-10 -5 0 -8 4 -4 9 3 6 7 49 8 97 2 49 2 83 -1 76 -10 -30 -19 -8 -12 31 5 23
5 121 1 217 -4 96 -4 185 1 198 9 27 11 293 2 316 -5 13 -9 14 -20 5 -8 -7
-16 -10 -18 -8 -6 5 -27 1240 -26 1459 1 96 1 369 2 605 0 237 0 439 0 450 0
11 -2 45 -5 75 -4 30 -9 323 -12 650 -8 876 -16 1424 -23 1434 -3 5 0 6 6 2 7
-4 12 -1 12 8 0 8 -4 17 -9 21 -5 3 -13 30 -16 60 -8 57 6 93 59 150 41 45 48
56 42 71 -4 9 1 14 14 14 12 0 20 7 20 16 0 14 -2 15 -17 3 -31 -26 -5 13 85
131 11 14 45 63 77 110 32 47 71 99 86 117 15 17 30 41 34 52 4 12 12 18 21
14 8 -3 14 1 14 8 0 7 10 23 22 36 12 12 23 34 24 48 2 15 14 35 28 46 23 18
36 49 21 49 -8 0 -45 -39 -45 -47 0 -4 -9 -16 -19 -28 -37 -38 -76 -84 -101
-120 -39 -56 -130 -168 -149 -185 -10 -8 -35 -40 -57 -70 -21 -30 -60 -76 -86
-102 -27 -26 -48 -50 -48 -55 0 -13 -50 -32 -66 -26 -10 4 -12 0 -8 -11 4 -11
1 -16 -10 -16 -9 0 -32 -16 -52 -35 -23 -23 -48 -37 -74 -41 -22 -4 -43 -11
-46 -15 -7 -13 94 -11 136 2 66 20 80 18 80 -6 0 -20 -17 -35 -36 -34 -3 0
-11 -6 -17 -14 -13 -16 -104 -43 -113 -34 -4 3 -28 -6 -55 -20 -27 -14 -58
-23 -69 -20 -11 3 -18 2 -15 -3 3 -4 -18 -16 -45 -26 -28 -10 -59 -26 -70 -36
-13 -12 -21 -14 -26 -7 -7 12 -103 -88 -104 -108 0 -7 -4 -13 -9 -13 -8 0 -43
-44 -123 -157 -14 -19 -32 -33 -45 -33 -12 0 -25 -4 -28 -10 -3 -5 -28 -8 -55
-7 -28 2 -50 0 -50 -5 0 -4 -18 -8 -40 -8 -22 0 -40 -4 -40 -10 0 -5 -4 -10
-10 -10 -5 0 -10 7 -10 15 0 8 -7 15 -15 15 -8 0 -15 9 -15 21 0 12 -4 17 -11
14 -6 -4 -7 -19 -4 -36 7 -31 -10 -42 -18 -11 -4 16 -5 16 -6 0 -1 -14 -10
-18 -36 -18 -19 0 -35 -4 -35 -8 0 -17 -75 -7 -91 12 -19 23 -39 14 -39 -18 0
-16 -7 -26 -22 -30 -43 -11 -48 -7 -48 34 l0 40 -47 -1 c-30 -1 -37 -4 -20 -6
27 -4 39 -23 14 -23 -8 0 -12 -11 -11 -31 2 -31 -15 -47 -37 -34 -8 6 -7 10 2
16 11 7 10 9 -3 9 -10 0 -18 5 -18 10 0 6 -18 10 -40 10 -36 0 -40 3 -40 25 0
14 -4 25 -10 25 -5 0 -10 -7 -10 -16 0 -9 -9 -18 -20 -21 -14 -4 -20 -14 -20
-34 0 -34 -8 -40 -40 -26 -25 10 -25 10 -2 14 12 3 22 11 22 19 0 16 -16 19
-25 4 -5 -8 -11 -7 -20 0 -8 7 -19 9 -25 5 -5 -3 -10 -1 -10 6 0 10 -3 10 -12
1 -9 -9 -8 -15 8 -28 18 -15 17 -15 -11 -8 -16 4 -40 8 -52 9 -13 1 -26 4 -29
8 -4 3 -15 2 -25 -3 -14 -8 -21 -5 -32 10 l-14 20 -18 -20 c-18 -19 -17 -20 6
-21 18 -1 20 -2 6 -6 -10 -3 -27 3 -38 13 -10 9 -22 14 -26 10 -4 -4 -1 -11 6
-15 10 -7 10 -10 1 -16 -6 -4 -17 -2 -23 4 -18 18 -33 13 -46 -16 -9 -20 -14
-24 -21 -13 -4 7 -6 19 -3 27 3 8 -2 13 -16 13 -16 0 -21 -6 -21 -25 0 -16 -6
-25 -15 -25 -8 0 -15 5 -15 10 0 6 -20 10 -45 10 -34 0 -45 4 -45 16 0 13 -11
14 -76 9 -51 -5 -74 -4 -70 3 3 6 2 13 -4 17 -5 3 -10 -3 -10 -14 0 -22 -24
-29 -35 -11 -8 13 -45 13 -45 -1 0 -5 -4 -7 -10 -4 -5 3 -10 15 -10 26 0 26
-17 24 -26 -3 -4 -13 -2 -24 5 -26 12 -4 16 -32 4 -32 -3 0 -15 7 -25 17 -17
15 -18 15 -18 0 0 -26 -29 -20 -36 8 l-6 24 -28 -21 c-29 -21 -50 -18 -50 8 0
8 -6 14 -14 14 -8 0 -23 3 -33 6 -14 5 -15 4 -7 -5 18 -20 -9 -64 -40 -67 -22
-2 -26 2 -26 22 0 21 -3 23 -19 14 -27 -14 -31 -13 -31 10 0 11 -7 20 -15 20
-10 0 -15 -10 -15 -31 0 -18 -4 -28 -10 -24 -6 4 -8 15 -5 25 5 16 -1 18 -47
16 -38 -1 -52 3 -50 12 1 7 -8 12 -23 12 -30 0 -34 -26 -5 -35 26 -8 26 -32 0
-40 -27 -8 -42 3 -35 25 7 22 -19 50 -47 50 -11 0 -22 -8 -25 -19 -5 -19 -6
-19 -39 -3 -18 9 -34 24 -34 32 0 11 -4 10 -15 -5 -39 -52 -61 -75 -72 -75
-19 0 -16 14 8 36 55 50 62 88 79 479 9 205 25 494 34 645 3 41 7 116 8 165
l3 90 -359 3 -359 2 6 -55 c3 -30 1 -57 -4 -60 -12 -8 -12 -42 0 -47 5 -1 11
-38 14 -81 3 -63 0 -86 -14 -115 -12 -23 -15 -38 -9 -42 6 -4 13 -23 17 -43 5
-31 3 -37 -13 -37 -14 0 -15 -3 -6 -12 17 -17 15 -38 -3 -38 -8 0 -15 -7 -15
-15 0 -8 6 -15 13 -15 7 0 12 -14 13 -36 0 -20 7 -40 15 -45 10 -6 10 -9 2 -9
-7 0 -13 -11 -13 -24 0 -14 -4 -28 -10 -31 -6 -3 -10 -21 -10 -40 0 -18 -7
-40 -15 -49 -8 -8 -15 -31 -15 -50 0 -20 -4 -36 -9 -36 -5 0 -12 -11 -15 -24
-3 -13 -8 -31 -12 -39 -3 -9 3 -16 16 -20 32 -8 14 -27 -26 -27 -30 0 -34 -3
-34 -26 0 -21 -4 -24 -20 -19 -32 10 -46 -6 -19 -21 32 -18 39 -17 39 2 0 19
24 13 28 -7 1 -8 -15 -21 -43 -32 -25 -11 -45 -25 -45 -33 0 -8 -4 -14 -10
-14 -5 0 -10 18 -10 40 0 59 -22 68 -142 62 -54 -2 -98 -8 -98 -12 0 -5 8 -6
18 -4 19 5 50 -11 40 -21 -4 -4 -23 -2 -44 5 -20 7 -56 10 -81 7 -35 -4 -43
-2 -39 9 4 10 -2 14 -20 14 -14 0 -23 -4 -20 -9 3 -4 -3 -16 -14 -26 -24 -21
-54 -13 -47 14 2 11 -3 23 -14 30 -12 7 -19 7 -19 1 0 -5 -7 -10 -15 -10 -19
0 -19 -11 0 -36 20 -26 19 -44 -3 -44 -13 0 -23 13 -32 40 -12 36 -40 56 -40
29 0 -6 -8 -9 -17 -7 -14 3 -17 12 -14 51 1 29 -2 47 -8 47 -6 0 -12 -17 -12
-37 -1 -21 -5 -51 -9 -68 l-8 -30 -1 28 c0 15 -4 27 -9 27 -4 0 -7 18 -7 40 0
31 -3 40 -16 40 -10 0 -16 -7 -15 -17 0 -11 -6 -17 -16 -17 -14 1 -18 -6 -18
-38 l0 -39 -25 18 c-13 10 -25 26 -25 35 0 18 -20 36 -20 19 0 -6 -7 -11 -15
-11 -9 0 -18 -7 -21 -15 -6 -14 -34 -22 -34 -10 0 3 9 23 20 45 24 46 8 67
-22 30 -19 -24 -29 -20 -41 15 -2 6 -18 5 -41 -4 -41 -14 -52 -9 -58 29 -4 24
-5 23 -21 -12 -13 -29 -23 -38 -40 -37 l-22 2 23 4 c19 4 22 11 22 46 l0 42
-66 -3 c-54 -3 -68 -1 -79 15 -13 16 -14 15 -15 -16 0 -40 -12 -35 -15 6 -1
16 -3 38 -3 51 -1 13 -9 22 -18 22 -11 0 -14 -6 -10 -20 3 -11 9 -29 12 -40 4
-14 1 -20 -10 -20 -9 0 -16 3 -16 8 0 4 -11 20 -25 36 -14 16 -25 40 -25 53 0
35 -22 23 -34 -18 -8 -28 -10 -30 -13 -12 -3 16 -14 23 -44 28 -38 7 -53 28
-26 38 6 3 -12 6 -40 6 -29 1 -53 -3 -53 -9 0 -18 -18 -10 -23 10 -3 11 -10
20 -17 20 -7 0 -14 -9 -17 -20 -3 -11 -9 -20 -14 -20 -13 0 -11 38 2 42 7 2 7
12 -2 30 -6 15 -15 25 -20 22 -4 -2 -13 4 -18 13 -11 17 -11 17 -22 0 -5 -9
-14 -15 -18 -12 -13 7 -21 -34 -14 -69 6 -27 4 -29 -9 -19 -8 7 -18 10 -21 6
-8 -7 -10 9 -8 43 1 12 -5 24 -13 27 -9 4 -16 13 -16 22 0 24 -20 18 -53 -17
-18 -20 -32 -28 -34 -21 -2 7 -11 9 -19 6 -8 -3 -14 -1 -14 5 0 6 -3 17 -6 25
-3 9 1 17 10 19 11 2 13 7 6 18 -9 13 -12 13 -24 -2 -7 -10 -18 -18 -25 -18
-6 0 -11 -12 -11 -26 0 -14 -4 -23 -10 -19 -6 3 -10 15 -10 26 0 10 5 19 10
19 6 0 10 18 10 40 0 40 0 40 -39 40 -22 0 -41 -5 -44 -12 -2 -7 -8 -9 -13 -5
-5 4 -4 11 2 15 6 4 13 30 16 57 3 28 3 44 1 38 -3 -7 -14 -13 -26 -12 l-22 0
23 16 c28 20 28 33 -1 33 -14 0 -26 -9 -32 -22 -9 -20 -17 -23 -68 -22 -88 3
-125 12 -132 34 -5 15 -12 19 -31 14 -18 -5 -24 -2 -24 10 0 9 -4 16 -9 16 -5
0 -7 -9 -4 -20 4 -14 0 -20 -10 -20 -22 0 -30 16 -30 61 0 25 -4 39 -13 39
-16 0 -26 -15 -17 -24 10 -10 11 -46 1 -46 -4 0 -8 7 -8 15 0 11 -12 15 -46
15 -27 0 -43 -4 -39 -10 3 -5 -3 -10 -14 -10 -15 0 -19 5 -14 16 4 12 0 15
-18 12 -13 -2 -23 -9 -22 -16 2 -6 -4 -12 -12 -12 -15 0 -21 46 -16 108 1 16
-4 22 -20 22 -18 0 -20 -4 -15 -25 5 -18 2 -25 -9 -25 -9 0 -15 -9 -15 -22 0
-16 -3 -19 -9 -10 -4 7 -6 35 -3 63 3 32 1 49 -7 49 -6 0 -11 -17 -11 -40 0
-22 -4 -40 -10 -40 -5 0 -10 18 -10 40 0 22 5 40 10 40 6 0 10 7 10 15 0 12
-9 15 -36 13 -41 -3 -53 -13 -24 -21 16 -4 20 -13 19 -49 -2 -29 -3 -34 -6
-15 -3 21 -10 27 -28 27 -26 0 -37 12 -39 44 -1 18 -6 20 -48 17 -45 -2 -64
10 -35 23 9 5 9 7 -1 12 -10 5 -9 10 4 25 13 14 14 23 7 30 -14 14 -32 3 -42
-24 -6 -17 -9 -13 -15 21 -3 23 -11 42 -16 42 -6 0 -10 15 -10 34 0 19 -4 38
-10 41 -5 3 -10 -1 -10 -9 0 -9 -7 -16 -15 -16 -23 0 -30 4 -29 17 1 10 -192
13 -907 13 l-909 0 12 -20 c7 -11 19 -18 25 -15 7 2 13 0 13 -5 0 -6 3 -9 8
-8 18 4 42 -16 42 -36 0 -21 1 -21 18 2 l18 24 25 -36 c13 -20 32 -36 41 -36
26 0 67 -44 74 -79 7 -35 12 -38 29 -14 11 15 14 14 25 -8 28 -52 94 -117 132
-130 26 -8 38 -18 38 -31 0 -10 7 -18 15 -18 9 0 14 -8 12 -22 -2 -24 11 -27
47 -13 16 7 17 6 7 -13 -10 -20 -9 -22 12 -22 28 0 54 -24 37 -35 -17 -10 -11
-25 10 -25 11 0 20 -6 20 -13 0 -8 23 -24 50 -37 48 -22 63 -44 38 -52 -15 -5
56 -49 74 -46 7 2 12 -5 12 -14 -1 -13 5 -18 22 -18 17 0 22 -4 18 -15 -5 -11
-10 -13 -19 -5 -13 11 -25 3 -25 -17 0 -8 8 -13 18 -12 17 3 102 -72 102 -90
0 -5 -8 -12 -17 -14 -10 -3 -3 -5 15 -6 31 -1 36 -8 33 -43 -2 -13 10 -18 46
-24 26 -4 40 -10 31 -12 -22 -4 -24 -51 -3 -57 49 -16 51 -17 25 -26 -23 -8
-22 -8 6 -5 28 4 30 3 30 -29 0 -19 5 -44 11 -57 35 -72 38 -103 13 -138 -12
-17 -28 -30 -36 -30 -8 0 -28 -7 -44 -15 -19 -10 -63 -16 -122 -18 l-93 -2 3
-52 c3 -46 0 -55 -27 -83 -28 -30 -38 -33 -123 -42 -111 -12 -222 -6 -244 13
-18 14 -32 23 -90 56 -22 11 -50 30 -63 42 -13 12 -30 21 -37 21 -7 0 -14 4
-16 9 -1 5 -27 23 -57 40 -35 21 -51 27 -48 17 5 -12 -8 -10 -62 9 -38 14 -80
25 -95 25 -14 0 -26 5 -26 10 0 6 -5 10 -12 10 -6 0 -31 9 -55 21 -24 12 -53
19 -63 16 -22 -6 -28 8 -7 16 6 3 -2 6 -19 6 -19 1 -34 7 -38 16 -3 8 -17 15
-31 15 -14 0 -25 6 -25 13 0 7 -20 18 -43 25 -24 7 -57 22 -73 32 -16 11 -38
25 -49 32 -10 7 -26 21 -35 32 -15 17 -17 17 -33 1 -16 -15 -17 -15 -18 12 0
23 -2 25 -8 9 -5 -14 -10 -16 -15 -8 -4 7 -13 12 -21 12 -8 0 -35 21 -61 46
-31 30 -50 41 -54 34 -6 -9 -14 -8 -33 5 -16 10 -34 14 -47 10 -16 -5 -20 -2
-20 14 0 16 -6 21 -26 21 -16 0 -34 10 -46 25 -11 14 -26 25 -34 25 -9 0 -25
5 -36 11 -17 9 -18 13 -7 21 10 6 3 7 -21 4 -19 -3 -29 -3 -22 0 6 3 12 12 12
20 0 16 -26 19 -35 4 -13 -21 -27 -9 -23 20 3 20 1 27 -6 21 -6 -4 -21 -11
-33 -14 -19 -4 -23 -1 -23 20 0 14 -4 22 -10 18 -6 -4 -17 -1 -25 5 -12 10
-15 9 -15 -4 0 -9 -4 -16 -10 -16 -5 0 -9 9 -7 21 1 12 -5 24 -13 29 -8 4 -25
12 -38 19 -13 7 -33 10 -45 7 -12 -3 -17 -3 -10 0 9 4 10 10 1 24 -9 14 -16
16 -25 9 -8 -8 -16 -5 -25 10 -8 13 -23 21 -39 21 -14 0 -36 10 -49 22 -16 15
-25 18 -28 10 -2 -7 -10 -12 -18 -12 -11 0 -13 7 -8 27 6 23 4 25 -14 21 -18
-5 -19 -3 -9 13 9 14 9 21 -1 31 -9 9 -12 7 -12 -11 0 -17 -3 -21 -12 -14 -19
14 -69 15 -84 2 -12 -9 -13 -6 -8 19 9 44 -1 68 -21 52 -12 -10 -20 -9 -39 3
-13 9 -27 12 -32 7 -5 -4 -18 -4 -29 0 -19 8 -19 9 3 9 13 1 22 7 22 16 0 18
-12 19 -28 3 -9 -9 -12 -8 -12 5 0 10 -5 14 -14 11 -8 -3 -19 3 -26 16 -6 11
-16 18 -22 14 -13 -8 -28 14 -28 44 0 22 -10 28 -23 15 -4 -3 -20 -7 -37 -7
-24 -1 -30 3 -32 24 -2 20 -12 28 -50 40 -50 16 -63 30 -28 30 11 0 20 6 20
14 0 11 -9 13 -34 9 -18 -3 -43 0 -55 6 -24 13 -29 33 -6 25 20 -8 19 3 -1 24
-15 14 -18 14 -34 -9 -10 -13 -22 -20 -27 -15 -4 5 -2 11 5 13 10 4 10 8 1 19
-9 11 -8 14 4 14 8 0 20 7 27 15 7 9 19 14 27 11 7 -3 13 -1 13 5 0 6 -15 9
-32 7 -19 -2 -32 -8 -31 -15 3 -14 -32 -27 -47 -18 -5 3 -10 15 -10 26 0 12
-7 19 -20 19 -13 0 -20 7 -20 20 0 11 -7 20 -16 20 -8 0 -13 -4 -9 -9 3 -5 1
-12 -5 -16 -5 -3 -10 1 -10 9 0 14 -42 16 -380 16 l-380 0 0 -4500z m4860
4430 c11 -7 7 -10 -17 -10 -17 0 -40 -3 -50 -6 -10 -3 -7 2 7 10 29 18 40 19
60 6z m-3943 -86 c-3 -3 -12 -4 -19 -1 -8 3 -5 6 6 6 11 1 17 -2 13 -5z m3876
-11 c-7 -2 -19 -2 -25 0 -7 3 -2 5 12 5 14 0 19 -2 13 -5z m181 -78 c-4 -8 -8
-15 -10 -15 -2 0 -4 7 -4 15 0 8 4 15 10 15 5 0 7 -7 4 -15z m52 -1 c-9 -8
-21 -12 -28 -8 -8 5 -6 10 8 15 31 12 37 10 20 -7z m14 -55 c0 -11 -4 -17 -10
-14 -5 3 -10 13 -10 21 0 8 5 14 10 14 6 0 10 -9 10 -21z m-32 -18 c3 -8 -1
-12 -9 -9 -7 2 -15 10 -17 17 -3 8 1 12 9 9 7 -2 15 -10 17 -17z m74 -27 c-7
-37 -21 -39 -20 -2 0 18 3 37 6 42 8 15 19 -14 14 -40z m-335 20 c-3 -3 -12
-4 -19 -1 -8 3 -5 6 6 6 11 1 17 -2 13 -5z m836 -145 c10 -11 17 -22 15 -24
-2 -2 -20 -12 -40 -24 l-38 -21 0 29 c0 20 -6 31 -17 34 -17 4 -17 5 0 6 10 0
20 -6 23 -14 7 -17 54 -21 54 -5 0 6 -9 10 -20 10 -11 0 -20 7 -20 15 0 22 23
18 43 -6z m74 -26 c-16 -16 -18 -16 -34 0 -16 16 -15 17 17 17 32 0 33 -1 17
-17z m-37 -32 c0 -6 -4 -13 -10 -16 -5 -3 -10 1 -10 9 0 9 5 16 10 16 6 0 10
-4 10 -9z m60 -7 c0 -8 -4 -12 -10 -9 -5 3 -10 10 -10 16 0 5 5 9 10 9 6 0 10
-7 10 -16z m-103 -20 c-3 -3 -12 -4 -19 -1 -8 3 -5 6 6 6 11 1 17 -2 13 -5z
m203 -14 c0 -5 -4 -10 -9 -10 -6 0 -13 5 -16 10 -3 6 1 10 9 10 9 0 16 -4 16
-10z m-220 -30 c0 -5 -7 -10 -15 -10 -8 0 -15 5 -15 10 0 6 7 10 15 10 8 0 15
-4 15 -10z m250 -41 c0 -11 -4 -17 -10 -14 -5 3 -10 13 -10 21 0 8 5 14 10 14
6 0 10 -9 10 -21z m135 -69 c3 -5 -1 -10 -9 -10 -9 0 -16 5 -16 10 0 6 4 10 9
10 6 0 13 -4 16 -10z m145 -5 c0 -8 -4 -15 -9 -15 -13 0 -22 16 -14 24 11 11
23 6 23 -9z m104 3 c5 -10 7 -10 12 0 10 21 26 13 18 -10 -3 -13 -8 -25 -10
-27 -5 -5 -44 35 -44 44 0 10 18 5 24 -7z m-144 -48 c0 -5 -4 -10 -10 -10 -5
0 -10 5 -10 10 0 6 5 10 10 10 6 0 10 -4 10 -10z m67 -32 c-3 -8 -6 -5 -6 6
-1 11 2 17 5 13 3 -3 4 -12 1 -19z m53 -8 c0 -5 -2 -10 -4 -10 -3 0 -8 5 -11
10 -3 6 -1 10 4 10 6 0 11 -4 11 -10z m157 -42 c-3 -7 -5 -2 -5 12 0 14 2 19
5 13 2 -7 2 -19 0 -25z m-2324 2 c3 -11 1 -18 -4 -14 -5 3 -9 12 -9 20 0 20 7
17 13 -6z m2394 -12 c-3 -8 -6 -5 -6 6 -1 11 2 17 5 13 3 -3 4 -12 1 -19z
m303 -53 c-14 -16 -40 -20 -40 -6 0 10 17 19 39 20 11 1 11 -2 1 -14z m13 -52
c-7 -2 -19 -2 -25 0 -7 3 -2 5 12 5 14 0 19 -2 13 -5z m-46 -9 c-3 -3 -12 -4
-19 -1 -8 3 -5 6 6 6 11 1 17 -2 13 -5z m253 -15 c-9 -16 -14 -18 -26 -8 -21
17 -17 29 11 29 23 0 24 -2 15 -21z m-85 -9 c-3 -5 -13 -10 -21 -10 -8 0 -14
5 -14 10 0 6 9 10 21 10 11 0 17 -4 14 -10z m-58 -16 c-3 -3 -12 -4 -19 -1 -8
3 -5 6 6 6 11 1 17 -2 13 -5z m179 -31 c-10 -10 -19 5 -10 18 6 11 8 11 12 0
2 -7 1 -15 -2 -18z m1014 17 c0 -5 -9 -10 -21 -10 -11 0 -17 5 -14 10 3 6 13
10 21 10 8 0 14 -4 14 -10z m-1093 -16 c-3 -3 -12 -4 -19 -1 -8 3 -5 6 6 6 11
1 17 -2 13 -5z m400 -66 c-3 -7 -5 -2 -5 12 0 14 2 19 5 13 2 -7 2 -19 0 -25z
m-3111 -15 c-10 -10 -19 5 -10 18 6 11 8 11 12 0 2 -7 1 -15 -2 -18z m2894 12
c10 -12 10 -15 -4 -15 -9 0 -16 7 -16 15 0 8 2 15 4 15 2 0 9 -7 16 -15z m745
5 c-3 -5 -10 -10 -16 -10 -5 0 -9 5 -9 10 0 6 7 10 16 10 8 0 12 -4 9 -10z
m-570 -10 c3 -5 1 -10 -4 -10 -6 0 -11 5 -11 10 0 6 2 10 4 10 3 0 8 -4 11
-10z m439 -1 c42 -20 21 -27 -66 -22 -96 5 -117 13 -35 13 31 0 59 5 62 10 8
13 9 12 39 -1z m-177 -5 c-3 -3 -12 -4 -19 -1 -8 3 -5 6 6 6 11 1 17 -2 13 -5z
m-37 -19 c0 -8 -4 -15 -10 -15 -5 0 -10 7 -10 15 0 8 5 15 10 15 6 0 10 -7 10
-15z m300 -5 c0 -11 -2 -20 -4 -20 -2 0 -6 9 -9 20 -3 11 -1 20 4 20 5 0 9 -9
9 -20z m-3543 -56 c-3 -3 -12 -4 -19 -1 -8 3 -5 6 6 6 11 1 17 -2 13 -5z
m6103 -145 c0 -14 -29 -43 -36 -36 -8 7 15 47 26 47 6 0 10 -5 10 -11z m-1488
-31 c-9 -9 -15 -9 -24 0 -9 9 -7 12 12 12 19 0 21 -3 12 -12z m1545 6 c-3 -3
-12 -4 -19 -1 -8 3 -5 6 6 6 11 1 17 -2 13 -5z m-1657 -24 c0 -18 -38 -44 -49
-34 -3 3 40 53 47 54 1 0 2 -9 2 -20z m1260 -10 c0 -5 -4 -10 -10 -10 -5 0
-10 5 -10 10 0 6 5 10 10 10 6 0 10 -4 10 -10z m-1150 -10 c0 -5 -4 -10 -10
-10 -5 0 -10 5 -10 10 0 6 5 10 10 10 6 0 10 -4 10 -10z m1220 -15 c0 -8 -4
-15 -10 -15 -5 0 -10 7 -10 15 0 8 5 15 10 15 6 0 10 -7 10 -15z m-1470 -5 c0
-5 -4 -10 -10 -10 -5 0 -10 5 -10 10 0 6 5 10 10 10 6 0 10 -4 10 -10z m704
-430 c-5 -4 -119 -11 -254 -14 -135 -4 -279 -8 -320 -10 -41 -2 -160 -7 -265
-11 -104 -4 -227 -8 -272 -7 -46 0 -85 -3 -88 -8 -3 -5 -173 -8 -378 -8 -278
1 -342 3 -252 8 217 15 347 20 615 26 146 3 280 9 298 14 21 5 32 5 32 -2 0
-6 8 -7 18 -3 9 3 141 9 292 12 151 3 277 7 279 9 9 8 303 2 295 -6z m49 3
c-7 -2 -19 -2 -25 0 -7 3 -2 5 12 5 14 0 19 -2 13 -5z m64 1 c-3 -3 -12 -4
-19 -1 -8 3 -5 6 6 6 11 1 17 -2 13 -5z m91 -1 c-10 -2 -26 -2 -35 0 -10 3 -2
5 17 5 19 0 27 -2 18 -5z m-2273 -68 c6 -2 -13 -4 -42 -4 -28 -1 -54 3 -57 8
-5 8 74 5 99 -4z m55 11 c0 -3 -4 -8 -10 -11 -5 -3 -10 -1 -10 4 0 6 5 11 10
11 6 0 10 -2 10 -4z m-435 -16 c3 -5 -3 -10 -14 -10 -12 0 -21 5 -21 10 0 6 6
10 14 10 8 0 18 -4 21 -10z m82 4 c-3 -3 -12 -4 -19 -1 -8 3 -5 6 6 6 11 1 17
-2 13 -5z m50 0 c-3 -3 -12 -4 -19 -1 -8 3 -5 6 6 6 11 1 17 -2 13 -5z m80 0
c-3 -3 -12 -4 -19 -1 -8 3 -5 6 6 6 11 1 17 -2 13 -5z m50 0 c-3 -3 -12 -4
-19 -1 -8 3 -5 6 6 6 11 1 17 -2 13 -5z m-697 -14 c0 -5 -21 -9 -47 -9 l-48 2
40 7 c22 4 43 8 48 9 4 0 7 -3 7 -9z m65 0 c-3 -5 -13 -10 -21 -10 -8 0 -12 5
-9 10 3 6 13 10 21 10 8 0 12 -4 9 -10z m224 6 c-8 -9 -179 -13 -179 -5 0 5
41 9 92 9 50 0 89 -2 87 -4z m-432 -12 c-3 -3 -12 -4 -19 -1 -8 3 -5 6 6 6 11
1 17 -2 13 -5z m-384 -11 c-7 -2 -19 -2 -25 0 -7 3 -2 5 12 5 14 0 19 -2 13
-5z m214 1 c-3 -3 -12 -4 -19 -1 -8 3 -5 6 6 6 11 1 17 -2 13 -5z m-377 -238
c0 -2 -7 -9 -15 -16 -13 -11 -14 -10 -9 4 5 14 24 23 24 12z m-65 -76 c-3 -5
-11 -10 -16 -10 -6 0 -7 5 -4 10 3 6 11 10 16 10 6 0 7 -4 4 -10z m2682 -42
c-2 -13 -4 -5 -4 17 -1 22 1 32 4 23 2 -10 2 -28 0 -40z m188 -8 c3 -5 1 -10
-4 -10 -6 0 -11 5 -11 10 0 6 2 10 4 10 3 0 8 -4 11 -10z m71 1 c-14 -5 -16
-10 -8 -15 9 -5 7 -13 -5 -31 -24 -31 -32 -23 -19 20 8 25 16 35 31 34 19 0
19 -1 1 -8z m-646 -5 c0 -3 -4 -8 -10 -11 -5 -3 -10 -1 -10 4 0 6 5 11 10 11
6 0 10 -2 10 -4z m553 -31 c-7 -21 -13 -19 -13 6 0 11 4 18 10 14 5 -3 7 -12
3 -20z m334 -77 c-40 -29 -36 -48 8 -34 27 8 33 15 29 28 -6 20 4 23 26 7 11
-8 12 -12 3 -16 -15 -5 -18 -33 -4 -33 5 0 8 -7 7 -16 0 -9 5 -19 12 -21 8 -3
12 6 12 25 0 23 5 31 24 34 36 7 58 -24 50 -68 -5 -27 -3 -34 10 -34 9 0 16 8
16 19 0 11 5 23 10 26 6 3 10 -1 10 -9 0 -9 7 -16 15 -16 17 0 20 25 5 35 -15
9 -12 25 5 25 22 0 55 -37 55 -61 0 -17 -5 -20 -21 -16 -16 4 -20 1 -17 -16 4
-27 38 -36 39 -10 0 10 6 3 13 -17 8 -22 10 -41 5 -52 -15 -27 -11 -68 6 -68
9 0 15 9 15 25 0 27 14 33 27 11 6 -11 12 -10 27 5 17 17 18 19 3 19 -9 0 -17
5 -17 10 0 15 57 12 64 -2 5 -10 7 -10 12 0 3 6 12 12 20 12 19 0 18 34 -1 50
-22 18 -18 30 10 30 18 0 25 -5 25 -19 0 -10 7 -24 15 -31 22 -18 19 -30 -7
-30 -22 -1 -22 -1 -4 -12 15 -8 21 -8 24 0 2 7 21 12 42 12 31 0 39 -4 43 -22
4 -14 1 -26 -8 -31 -29 -16 -14 -27 35 -27 43 0 50 -3 50 -20 0 -17 7 -20 40
-20 33 0 40 -3 40 -20 0 -16 7 -20 34 -20 19 0 37 6 39 13 3 6 6 -7 6 -30 l1
-43 39 0 c23 0 41 -5 44 -12 3 -10 8 -9 22 2 22 19 63 20 69 3 3 -7 1 -13 -4
-13 -6 0 -10 -18 -10 -40 0 -27 4 -40 14 -40 7 0 16 -9 19 -21 3 -11 15 -23
26 -26 11 -3 22 -12 24 -22 3 -9 6 4 7 29 l3 45 7 -45 7 -45 1 43 c1 23 7 42
12 42 6 0 11 -19 12 -42 l1 -43 7 45 7 45 1 -41 c1 -23 9 -47 17 -54 18 -15
19 -42 3 -58 -7 -7 -8 -12 -2 -12 6 0 19 9 29 20 17 19 17 21 0 40 -18 20 -17
20 8 20 17 0 28 -7 32 -20 8 -25 -2 -60 -18 -61 -7 0 -2 -4 10 -9 12 -5 24
-21 28 -39 4 -17 11 -31 16 -31 5 0 4 -9 -3 -19 -10 -16 -9 -25 1 -45 9 -15
12 -42 9 -70 -3 -24 -1 -49 4 -54 6 -6 5 -17 -3 -30 -10 -16 -10 -26 -1 -47
10 -21 10 -31 1 -41 -9 -11 -8 -14 7 -15 11 0 14 -3 7 -6 -7 -2 -13 -11 -13
-18 0 -12 -70 -26 -120 -23 -62 2 -236 -16 -242 -25 -4 -7 -8 -30 -9 -52 -3
-73 2 -409 6 -416 3 -4 41 -6 85 -5 l80 1 0 -27 c0 -29 9 -35 26 -18 8 8 19 7
38 -1 24 -11 29 -10 56 16 20 19 41 29 65 29 20 1 41 8 46 16 6 9 9 84 7 180
-1 91 1 170 5 176 4 7 30 11 59 10 51 -1 53 -2 53 -28 -1 -16 4 -28 10 -29 5
0 53 -1 105 -2 91 -1 95 0 107 23 7 14 13 20 13 14 0 -8 33 -12 101 -13 56 -1
105 -4 109 -6 13 -8 -2 -55 -17 -55 -10 0 -12 -6 -8 -21 5 -16 3 -20 -6 -17
-8 3 -13 12 -11 21 3 17 -27 25 -65 19 -31 -6 -29 -32 2 -32 31 0 24 -22 -22
-68 -18 -18 -33 -39 -33 -47 0 -11 -8 -13 -29 -9 -16 3 -32 1 -35 -5 -4 -6
-16 -7 -29 -3 -30 10 -55 8 -101 -7 -34 -12 -40 -12 -48 3 -12 22 -37 20 -65
-6 -21 -20 -23 -30 -23 -119 0 -96 0 -97 23 -92 12 3 28 10 35 16 8 6 12 6 12
-1 0 -6 20 -10 50 -8 27 1 51 -2 53 -7 1 -4 52 -9 112 -9 90 -1 101 -2 60 -9
-27 -4 -75 -8 -105 -8 -30 -1 -70 -5 -88 -10 -18 -5 -67 -11 -110 -12 -42 -1
-83 -6 -89 -12 -10 -7 -13 -58 -13 -193 l0 -184 -25 0 c-28 0 -75 20 -75 32 0
4 8 8 18 8 16 0 18 10 17 108 0 59 2 122 6 141 6 27 4 38 -9 48 -23 17 -32 16
-32 -2 0 -8 -8 -15 -18 -15 -10 0 -23 -5 -30 -12 -8 -8 -12 -8 -12 -1 0 17
-38 9 -55 -12 -15 -19 -16 -18 -10 19 6 36 5 38 -10 22 -21 -21 -32 -20 -80 4
-75 38 -125 16 -125 -57 0 -41 -38 -73 -57 -47 -6 9 -9 22 -6 30 3 9 -1 14
-12 14 -13 0 -16 6 -13 25 5 25 -14 36 -27 15 -13 -21 -24 -9 -15 15 9 23 8
25 -10 15 -14 -7 -20 -7 -20 0 0 18 -22 11 -27 -10 -3 -11 -9 -20 -14 -20 -5
0 -9 9 -9 20 0 38 -16 20 -28 -33 -6 -29 -12 -105 -12 -169 l0 -116 93 5 c50
2 110 5 132 6 39 2 40 3 37 35 -3 23 1 32 12 32 8 0 18 -5 22 -11 3 -6 15 -9
25 -6 11 3 19 1 19 -4 0 -5 4 -9 9 -9 4 0 6 11 4 24 -3 14 1 25 10 29 10 4 13
-1 9 -19 -5 -26 7 -31 26 -12 9 9 12 9 12 0 0 -7 -4 -12 -9 -12 -14 0 -23 -33
-10 -40 6 -4 47 -6 92 -5 65 2 76 1 52 -7 -16 -5 -50 -9 -75 -9 -25 0 -59 -7
-77 -17 -27 -13 -41 -14 -85 -5 -32 6 -62 7 -76 2 -13 -5 -28 -6 -33 -3 -12 7
-162 6 -204 -2 -27 -5 -31 -2 -41 25 -9 23 -16 29 -33 24 -19 -5 -21 -1 -21
49 0 45 -5 60 -25 82 -14 15 -25 37 -25 49 1 36 -62 151 -94 172 -16 11 -37
34 -46 50 -9 17 -25 32 -35 34 -10 1 -23 7 -29 12 -49 41 -61 49 -72 49 -8 0
-20 10 -29 23 -12 19 -14 62 -12 259 1 130 -1 239 -4 242 -3 4 -14 3 -23 0
-14 -5 -15 -9 -4 -15 10 -7 10 -9 1 -9 -7 0 -13 -9 -13 -19 0 -24 -22 -29
-140 -30 -87 -1 -100 1 -150 28 -79 42 -106 55 -185 87 -38 16 -91 42 -116 59
-52 33 -56 46 -61 157 -2 36 -5 69 -8 71 -10 10 -157 18 -280 15 -284 -7 -341
-4 -352 15 -7 14 -13 16 -24 6 -11 -9 -14 -7 -14 16 0 20 -4 26 -15 21 -8 -3
-15 -1 -15 5 0 17 -44 -1 -63 -27 -11 -14 -29 -24 -43 -24 -13 0 -24 -4 -24
-8 0 -5 -9 -19 -20 -32 -25 -29 -25 -41 -1 -47 13 -3 21 -17 26 -41 3 -21 15
-52 26 -70 21 -36 26 -102 8 -102 -6 0 -9 8 -6 19 2 10 -3 28 -13 41 -14 19
-20 21 -38 11 -11 -6 -23 -11 -25 -11 -6 0 -21 52 -18 66 1 6 -10 19 -24 28
-15 10 -22 22 -19 31 4 9 0 15 -10 15 -10 0 -16 8 -16 21 0 17 -62 89 -77 89
-2 0 -16 11 -31 25 -15 14 -23 25 -18 25 5 0 3 7 -4 15 -10 12 -7 15 17 21 15
4 30 11 34 15 3 5 36 2 74 -6 43 -9 92 -12 127 -8 50 5 58 4 58 -11 0 -10 5
-14 10 -11 6 4 8 11 5 16 -4 5 5 9 20 9 14 0 28 -7 31 -15 4 -8 13 -15 21 -15
8 0 11 5 8 10 -3 6 -4 10 -1 10 2 0 11 3 20 6 11 4 16 0 16 -11 0 -16 7 -17
58 -11 43 5 53 3 42 -5 -12 -9 -11 -10 5 -4 29 10 224 15 200 5 -21 -9 -20 -9
34 -15 20 -2 28 0 21 5 -9 6 -5 9 14 12 14 2 28 8 29 13 1 6 -60 12 -158 16
-161 6 -363 22 -510 39 -44 6 -111 10 -150 10 -83 0 -123 9 -103 21 10 7 11 9
0 9 -7 0 -10 5 -7 10 3 6 -1 10 -11 10 -12 0 -14 3 -6 13 6 7 7 18 3 26 -14
23 -62 3 -103 -41 -35 -38 -39 -40 -80 -34 -24 3 -56 7 -73 9 -19 1 -29 7 -27
16 2 9 -3 11 -15 7 -37 -15 -71 -18 -77 -7 -4 6 -3 11 2 11 11 0 32 45 32 68
-1 16 -2 16 -14 0 -7 -10 -18 -18 -24 -18 -6 0 -13 -8 -15 -17 -4 -15 -5 -15
-6 -2 0 9 8 24 19 34 25 22 27 47 4 38 -14 -5 -16 -2 -10 20 7 31 -1 35 -20
10 -12 -16 -13 -14 -7 17 3 19 10 37 15 38 4 2 8 10 8 19 0 12 -2 12 -13 1
-29 -28 -37 -59 -37 -138 0 -56 -3 -79 -11 -74 -19 11 -4 175 20 223 23 45 27
66 10 55 -6 -3 -15 -1 -19 6 -6 9 -11 7 -20 -10 -10 -18 -14 -20 -21 -9 -6 10
-12 3 -24 -25 -9 -21 -19 -36 -22 -33 -6 7 16 78 28 92 5 5 9 19 9 31 0 13 5
26 10 29 6 3 10 12 10 18 -1 7 -8 3 -18 -9 -10 -11 -23 -19 -29 -17 -7 3 -21
0 -32 -6 -28 -16 -40 -179 -17 -235 20 -49 20 -56 -2 -56 -15 0 -18 10 -20 67
-2 36 -4 69 -6 72 -6 10 14 133 26 164 7 19 20 30 39 34 16 3 29 12 29 19 0 8
7 14 15 14 8 0 12 -6 9 -14 -4 -10 7 -13 49 -13 43 0 60 -5 78 -22 13 -12 30
-19 38 -16 8 3 32 -9 54 -26 34 -28 41 -30 51 -17 6 8 18 17 26 21 8 3 0 6
-18 6 -22 1 -32 5 -29 14 2 7 19 11 43 9 59 -4 85 -11 78 -23 -4 -7 9 -8 42
-3 60 8 64 11 28 20 -16 4 -35 11 -41 17 -15 11 -17 47 -3 47 6 0 10 -6 10
-13 0 -7 21 -20 46 -30 43 -16 45 -16 39 2 -8 27 16 41 76 44 52 3 54 4 52 30
-2 25 1 27 34 27 30 0 35 -3 30 -19 -5 -22 13 -34 32 -22 8 5 10 19 6 37 l-7
29 21 -30 c16 -23 19 -39 14 -67 -4 -25 -2 -38 6 -38 6 0 11 9 11 20 0 31 32
99 37 79 3 -11 11 -15 24 -12 14 4 18 11 14 24 -5 15 -1 19 16 19 18 0 19 -2
9 -15 -10 -12 -9 -16 4 -21 10 -4 16 -18 16 -35 0 -19 5 -29 15 -29 8 0 15 5
15 10 0 6 9 10 21 10 14 0 19 -5 16 -13 -3 -8 -1 -20 4 -28 6 -10 9 -7 9 13 0
29 14 43 45 43 11 0 20 7 20 15 0 9 -9 15 -24 15 -18 0 -25 6 -26 23 -2 26 13
29 31 5 8 -11 13 -13 14 -5 0 7 15 12 40 12 l40 0 0 40 c0 42 9 50 30 25 9
-11 10 -19 1 -28 -15 -19 7 -41 26 -25 10 8 17 8 25 0 7 -7 31 -12 55 -12 l43
0 0 50 c0 37 4 50 14 50 8 0 18 -4 21 -10 3 -5 15 -10 26 -10 16 0 18 3 9 19
-7 13 -7 22 0 26 5 3 10 -3 10 -14 0 -12 7 -21 16 -21 14 0 14 -1 0 -16 -19
-19 -20 -36 -4 -52 10 -10 10 -15 1 -20 -7 -4 6 -7 28 -7 42 0 48 5 25 25 -17
14 -10 40 11 40 10 0 12 -6 8 -20 -4 -13 -1 -22 9 -26 22 -9 40 5 26 21 -14
17 -2 45 20 45 10 0 20 5 22 11 2 7 17 8 43 3 33 -6 36 -9 17 -13 -22 -6 -22
-7 -5 -30 16 -23 17 -23 25 -5 5 12 6 3 2 -23 -6 -42 -5 -42 19 -30 20 9 23
15 16 29 -13 24 6 60 29 56 9 -2 22 -15 29 -30 16 -36 31 -35 46 2 l13 29 38
-39 c21 -22 42 -40 47 -40 4 0 11 16 15 35 6 35 29 63 41 51 3 -3 1 -6 -5 -6
-7 0 -12 -16 -12 -40 0 -33 3 -40 20 -40 11 0 20 -7 20 -15 0 -8 5 -15 10 -15
6 0 13 7 16 15 4 8 12 15 19 15 6 0 17 10 23 23 9 19 11 19 11 3 1 -12 6 -16
17 -12 9 3 22 6 30 6 8 0 14 5 14 10 0 6 -9 10 -20 10 -29 0 -25 17 5 22 40 8
76 -2 73 -21 -2 -9 -11 -15 -21 -15 -9 1 -17 -5 -17 -13 0 -10 9 -13 33 -11
26 2 32 7 33 28 2 46 4 51 15 44 8 -5 8 -1 0 14 -6 11 -16 23 -23 25 -10 4
-10 8 1 15 10 7 22 0 44 -25 l31 -35 -27 -20z m-907 72 c0 -5 -7 -10 -16 -10
-8 0 -12 5 -9 10 3 6 10 10 16 10 5 0 9 -4 9 -10z m160 -10 c0 -13 -5 -18 -15
-14 -8 4 -15 12 -15 20 0 8 7 14 15 14 8 0 15 -9 15 -20z m560 -6 c0 -22 -2
-25 -15 -14 -12 10 -13 16 -4 26 16 20 19 18 19 -12z m-247 2 c3 -12 -30 -32
-39 -24 -11 12 5 40 21 36 9 -2 17 -7 18 -12z m682 -16 c3 -5 -3 -10 -14 -10
-13 0 -21 -7 -21 -17 0 -13 -3 -14 -11 -6 -8 8 -8 15 2 27 16 18 35 20 44 6z
m-465 -17 c0 -22 -26 -73 -37 -73 -15 0 -15 5 -7 49 5 21 12 31 25 31 11 0 19
-3 19 -7z m-780 -16 c0 -8 -3 -17 -7 -20 -9 -9 -34 13 -27 24 8 14 34 11 34
-4z m-515 -7 c-3 -5 -13 -10 -21 -10 -8 0 -14 5 -14 10 0 6 9 10 21 10 11 0
17 -4 14 -10z m252 4 c-3 -3 -12 -4 -19 -1 -8 3 -5 6 6 6 11 1 17 -2 13 -5z
m-32 -44 c3 -5 1 -10 -4 -10 -6 0 -11 5 -11 10 0 6 2 10 4 10 3 0 8 -4 11 -10z
m-315 -25 c0 -8 -4 -15 -10 -15 -5 0 -10 7 -10 15 0 8 5 15 10 15 6 0 10 -7
10 -15z m-110 -25 c0 -5 -4 -10 -10 -10 -5 0 -10 5 -10 10 0 6 5 10 10 10 6 0
10 -4 10 -10z m8 -47 c5 -17 -19 -17 -42 0 -16 12 -15 13 10 12 15 0 29 -6 32
-12z m-1058 -3 c0 -5 9 -10 21 -10 12 0 18 -4 13 -11 -3 -6 0 -15 7 -20 11 -7
10 -9 -5 -9 -20 0 -20 0 0 -16 15 -12 16 -15 2 -10 -9 2 -22 -2 -29 -10 -10
-12 -14 -12 -20 -2 -7 10 -11 10 -21 0 -6 -6 -26 -12 -42 -12 -29 0 -30 1 -12
18 13 12 20 14 23 5 3 -7 9 -13 14 -13 6 0 7 5 4 10 -3 6 2 10 12 11 15 0 14
2 -4 11 -23 11 -32 38 -13 38 6 0 10 7 10 15 0 8 9 15 20 15 11 0 20 -4 20
-10z m820 -5 c0 -8 -2 -15 -4 -15 -2 0 -6 7 -10 15 -3 8 -1 15 4 15 6 0 10 -7
10 -15z m-65 -5 c3 -5 1 -10 -4 -10 -6 0 -11 5 -11 10 0 6 2 10 4 10 3 0 8 -4
11 -10z m-304 -43 c-10 -9 -11 -8 -5 6 3 10 9 15 12 12 3 -3 0 -11 -7 -18z
m349 13 c0 -5 -4 -10 -10 -10 -5 0 -10 5 -10 10 0 6 5 10 10 10 6 0 10 -4 10
-10z m-1919 -24 c-1 -3 8 -18 19 -33 19 -24 20 -35 14 -112 -4 -47 -7 -91 -8
-97 -1 -5 -13 -25 -26 -42 -24 -30 -27 -31 -63 -21 -41 11 -57 33 -57 78 0 24
5 32 25 37 16 4 25 13 25 25 0 10 11 26 25 35 22 14 25 24 25 73 0 32 3 61 7
64 7 7 15 3 14 -7z m1215 -43 c-10 -10 -19 5 -10 18 6 11 8 11 12 0 2 -7 1
-15 -2 -18z m-1273 -21 c-2 -7 1 -12 6 -12 5 0 7 -9 4 -20 -7 -24 -9 -25 -38
-2 -18 14 -21 22 -13 36 11 19 45 17 41 -2z m1777 -51 c0 -6 -4 -13 -10 -16
-5 -3 -10 1 -10 9 0 9 5 16 10 16 6 0 10 -4 10 -9z m-530 -51 c0 -21 -33 -60
-50 -60 -16 0 -12 42 7 62 21 24 43 23 43 -2z m-1034 -92 c-9 -12 -16 -17 -16
-10 0 18 24 54 28 42 2 -5 -4 -20 -12 -32z m84 22 c0 -18 -78 -90 -109 -101
-17 -6 -31 -15 -31 -19 0 -5 -15 -31 -32 -57 -25 -37 -34 -44 -36 -29 -2 10 1
23 7 29 6 6 11 21 11 34 0 13 5 22 12 21 7 -2 14 10 17 26 7 33 28 46 37 22 8
-20 24 -21 24 -1 0 8 5 15 10 15 6 0 10 7 10 16 0 8 5 12 10 9 6 -3 10 0 10 7
0 8 5 19 12 26 15 15 48 16 48 2z m714 -15 c-6 -16 -24 -21 -24 -7 0 11 11 22
21 22 5 0 6 -7 3 -15z m4073 9 c-3 -3 -12 -4 -19 -1 -8 3 -5 6 6 6 11 1 17 -2
13 -5z m-3357 -75 c0 -5 -7 -9 -15 -9 -9 0 -12 6 -9 15 6 15 24 11 24 -6z
m-1270 1 c0 -5 -2 -10 -4 -10 -3 0 -8 5 -11 10 -3 6 -1 10 4 10 6 0 11 -4 11
-10z m97 -66 c-3 -3 -12 -4 -19 -1 -8 3 -5 6 6 6 11 1 17 -2 13 -5z m4643 -4
c0 -5 -18 -10 -40 -10 -22 0 -40 5 -40 10 0 6 18 10 40 10 22 0 40 -4 40 -10z
m-4613 -32 c-3 -8 -6 -5 -6 6 -1 11 2 17 5 13 3 -3 4 -12 1 -19z m1145 -23
c11 -51 22 -62 44 -44 10 8 15 9 11 3 -9 -15 33 -26 48 -14 15 12 25 3 25 -22
0 -11 11 -23 25 -28 40 -15 43 -39 7 -71 -20 -18 -27 -30 -19 -33 7 -4 3 -5
-8 -3 -16 3 -21 -1 -22 -17 -1 -12 1 -15 4 -8 8 20 25 13 18 -8 -8 -24 6 -26
43 -4 20 12 18 9 -7 -12 -40 -34 -105 -62 -173 -74 -54 -11 -79 -5 -72 15 4 8
-11 24 -35 41 -42 27 -49 38 -31 49 25 15 5 33 -60 54 -64 20 -92 41 -55 41 8
0 15 6 15 14 0 8 11 17 25 20 14 4 25 11 25 16 0 5 15 16 33 24 36 14 87 58
87 73 0 17 24 34 44 31 15 -2 23 -14 28 -43z m-1525 -22 c-16 -16 -17 -15 -17
17 0 32 1 33 17 17 16 -16 16 -18 0 -34z m478 -53 c17 -19 17 -20 -9 -29 -23
-10 -76 0 -76 13 0 38 55 49 85 16z m-525 0 c0 -5 7 -10 15 -10 14 0 14 -10 5
-100 0 -3 -9 12 -20 33 -21 39 -27 87 -10 87 6 0 10 -4 10 -10z m2814 -216 c3
-7 -2 -10 -15 -7 -22 6 -26 20 -4 20 8 0 16 -6 19 -13z m-1864 -44 c-20 -13
-40 -13 -40 0 0 6 12 10 28 10 21 0 24 -2 12 -10z m863 -9 c5 -5 0 -12 -12
-15 -12 -3 -30 -9 -41 -12 -16 -4 -19 -2 -13 13 5 15 3 16 -8 6 -20 -20 -31
-15 -17 7 10 16 20 19 48 15 19 -3 39 -10 43 -14z m-940 -21 c-13 -57 -43 -80
-57 -44 -16 42 4 74 46 71 13 -1 16 -7 11 -27z m1828 -56 l-21 -27 0 24 c0 14
8 36 18 49 l17 25 3 -23 c2 -12 -6 -34 -17 -48z m-1596 36 c3 -5 1 -10 -4 -10
-6 0 -11 5 -11 10 0 6 2 10 4 10 3 0 8 -4 11 -10z m65 -40 c0 -11 -4 -20 -10
-20 -5 0 -10 -7 -10 -17 0 -9 -2 -14 -5 -11 -8 8 6 68 16 68 5 0 9 -9 9 -20z
m37 -5 c-4 -8 -12 -15 -19 -14 -10 0 -10 2 0 6 6 2 12 12 12 21 0 8 3 13 6 9
4 -3 4 -13 1 -22z m-88 6 c7 -5 10 -14 7 -20 -11 -18 -40 -13 -54 9 -11 18
-10 20 10 20 13 0 29 -4 37 -9z m4021 -22 c0 -5 -4 -9 -10 -9 -5 0 -10 7 -10
16 0 8 5 12 10 9 6 -3 10 -10 10 -16z m-2365 -20 c0 -15 -7 -25 -17 -27 -13
-3 -18 3 -18 21 0 13 3 27 7 31 13 12 28 -1 28 -25z m-1199 -56 c-18 -34 -21
-9 -3 30 7 16 13 21 15 12 2 -7 -4 -26 -12 -42z m74 -13 c38 -37 40 -70 4 -70
-33 0 -51 19 -59 64 -9 46 11 49 55 6z m3685 -100 c-3 -5 -23 -10 -43 -10 -28
0 -33 3 -22 10 20 13 73 13 65 0z m75 0 c-19 -13 -30 -13 -30 0 0 6 10 10 23
10 18 0 19 -2 7 -10z m320 -30 c0 -5 -4 -10 -10 -10 -5 0 -10 5 -10 10 0 6 5
10 10 10 6 0 10 -4 10 -10z m-4970 -81 c0 -5 -4 -9 -10 -9 -5 0 -10 7 -10 16
0 8 5 12 10 9 6 -3 10 -10 10 -16z m5113 -111 c4 -66 7 -147 7 -180 0 -58 0
-58 -30 -58 -28 0 -30 2 -19 22 8 15 9 64 4 171 -7 148 -4 166 26 167 3 0 9
-55 12 -122z m-5333 102 c11 -6 17 -17 14 -25 -4 -8 1 -18 10 -21 25 -9 19
-21 -16 -33 -35 -12 -48 -3 -48 36 0 12 -3 28 -6 37 -7 19 17 22 46 6z m5190
-1 c0 -18 -20 -49 -32 -49 -5 0 -8 9 -5 20 3 11 0 20 -6 21 -7 0 -3 4 8 9 28
12 35 12 35 -1z m50 -19 c0 -5 -5 -10 -11 -10 -5 0 -7 5 -4 10 3 6 8 10 11 10
2 0 4 -4 4 -10z m-4980 -20 c24 -15 -2 -32 -46 -28 l-39 3 30 17 c35 20 36 20
55 8z m228 -112 c-6 -18 -28 -21 -28 -4 0 9 7 16 16 16 9 0 14 -5 12 -12z
m-487 -8 c28 0 39 -4 39 -15 0 -8 -4 -15 -10 -15 -5 0 -10 5 -10 11 0 12 -128
8 -150 -6 -9 -5 -15 -4 -18 3 -2 7 -16 13 -30 14 -15 1 5 4 43 8 39 3 76 5 83
3 8 -2 31 -3 53 -3z m-358 -10 c31 0 57 -3 57 -8 0 -4 -28 -7 -62 -7 l-63 0
-3 -70 c-1 -47 1 -65 7 -55 6 8 13 12 16 8 3 -3 -1 -13 -10 -22 -15 -15 -15
-17 -1 -32 9 -8 16 -22 16 -29 0 -9 6 -12 15 -9 8 4 15 1 15 -5 0 -6 -7 -11
-15 -11 -8 0 -15 -5 -15 -11 0 -5 -4 -8 -9 -4 -17 10 -24 -16 -11 -41 10 -18
11 -30 2 -49 -8 -17 -12 -93 -12 -219 0 -160 -3 -196 -15 -206 -13 -11 -15 33
-15 385 l0 397 23 -6 c12 -3 48 -6 80 -6z m457 -75 c0 -5 -5 -3 -10 5 -5 8
-10 20 -10 25 0 6 5 3 10 -5 5 -8 10 -19 10 -25z m633 -41 c0 -16 1 -23 4 -16
2 6 11 12 18 12 23 0 74 -34 86 -58 7 -12 24 -25 38 -29 32 -7 53 -28 70 -70
7 -18 17 -33 22 -33 5 0 9 -11 9 -25 0 -14 7 -28 15 -31 17 -7 20 -30 5 -39
-6 -3 -7 1 -4 9 4 10 1 16 -9 16 -9 0 -25 13 -37 30 -11 16 -27 27 -34 24 -11
-4 -66 54 -66 71 0 12 -25 30 -55 40 -18 6 -31 18 -33 30 -3 21 -48 48 -63 39
-13 -8 -11 10 4 25 10 11 10 14 0 18 -22 8 -14 23 10 19 17 -3 22 -10 20 -32z
m4062 -14 c-3 -5 -13 -10 -21 -10 -8 0 -12 5 -9 10 3 6 13 10 21 10 8 0 12 -4
9 -10z m378 -35 c1 -5 -6 -11 -15 -13 -11 -2 -18 3 -18 13 0 17 30 18 33 0z
m-5473 -55 c0 -16 -2 -30 -4 -30 -2 0 -6 14 -8 30 -3 17 -1 30 4 30 4 0 8 -13
8 -30z m73 -90 c-8 -29 -21 -25 -15 5 2 14 8 23 12 20 5 -3 6 -14 3 -25z
m1467 -24 c0 -24 -14 -34 -35 -26 -12 5 -35 7 -49 6 -15 -2 -24 0 -19 5 4 4
24 9 43 12 19 2 41 5 48 5 6 1 12 0 12 -2z m-793 -31 c63 -8 80 -25 26 -26
-21 0 -54 -2 -73 -4 -19 -2 -82 -6 -140 -9 -58 -4 -139 -9 -181 -12 -56 -4
-86 -1 -114 10 -52 22 -40 40 31 46 79 7 385 3 451 -5z m456 -52 c-4 -10 -9
-11 -16 -4 -5 5 -7 18 -3 28 6 14 9 15 16 4 4 -8 6 -21 3 -28z m1213 16 c4 -7
24 -9 52 -6 45 5 96 -9 86 -24 -2 -4 -5 -65 -5 -136 -1 -70 -6 -136 -11 -145
-7 -15 -22 -18 -77 -18 l-68 0 -19 76 c-17 72 -18 77 -1 106 11 19 17 51 17
94 0 60 9 79 26 53z m-1023 -249 c-5 -16 -9 17 -13 95 -4 77 -2 125 5 134 12
17 20 -190 8 -229z m-826 58 c-2 -18 -4 -6 -4 27 0 33 2 48 4 33 2 -15 2 -42
0 -60z m4583 -28 c0 -5 15 -10 33 -10 18 0 48 -11 69 -25 39 -26 82 -33 94
-14 3 6 2 15 -4 21 -14 14 12 41 36 36 12 -3 16 -12 14 -31 -2 -20 2 -27 14
-27 11 0 14 -5 9 -17 -4 -10 -10 -28 -12 -40 -7 -28 -19 -30 -26 -3 -7 26 -34
17 -39 -13 -2 -12 -1 -56 2 -97 l5 -74 18 27 c9 15 20 47 24 72 4 35 10 45 22
42 9 -2 14 -10 12 -18 -5 -17 -4 -40 4 -96 5 -35 3 -43 -9 -43 -9 0 -16 -4
-16 -9 0 -6 -13 -18 -30 -28 -16 -9 -30 -26 -30 -36 0 -10 4 -16 9 -12 5 3 13
1 16 -5 5 -8 12 -7 23 2 14 11 15 10 8 -7 -19 -47 -18 -52 13 -66 17 -8 31
-19 31 -25 0 -17 -98 -30 -236 -33 -192 -3 -257 -9 -266 -23 -4 -7 -8 -27 -8
-45 0 -47 -9 -63 -36 -63 -13 0 -24 -4 -24 -8 0 -5 52 -8 116 -8 79 1 118 -3
121 -10 3 -9 13 -7 35 3 24 13 34 13 53 3 16 -8 41 -10 74 -6 45 6 51 4 52
-11 3 -36 12 -321 13 -417 l1 -99 -83 2 c-46 1 -89 -2 -95 -7 -17 -14 -50 -18
-66 -8 -8 5 -44 8 -82 7 -53 -2 -72 2 -88 16 -36 33 -50 43 -61 43 -5 0 -10 5
-10 10 0 6 -10 15 -23 21 -24 11 -81 114 -92 167 -5 23 -12 32 -26 32 -11 0
-19 7 -19 17 0 9 -3 14 -6 10 -4 -3 -21 11 -38 32 -17 21 -37 36 -44 33 -8 -2
-12 8 -12 31 0 19 -2 47 -5 63 -8 45 3 53 60 44 36 -6 54 -4 65 5 8 7 27 11
41 8 15 -3 43 3 64 13 l37 17 -27 14 c-21 11 -33 12 -54 4 -15 -7 -57 -10 -96
-7 -39 2 -87 5 -107 5 -53 1 -48 22 5 22 60 1 250 6 263 8 15 2 36 155 24 184
-8 21 -21 69 -25 92 0 6 -4 18 -8 28 -4 9 -9 24 -12 32 -4 15 -37 19 -132 17
-24 -1 -43 3 -43 8 0 15 -38 12 -43 -2 -4 -10 -7 -10 -18 -1 -9 10 -16 10 -27
1 -10 -9 -16 -8 -23 3 -5 8 -9 9 -9 2 0 -6 -18 -14 -39 -18 -36 -6 -40 -10
-46 -44 -3 -20 -6 -65 -7 -98 -1 -56 -2 -60 -18 -51 -10 6 -32 42 -49 80 -18
37 -36 68 -42 68 -5 0 -9 7 -9 15 0 8 -5 15 -11 15 -16 0 -39 26 -39 44 0 9
-4 16 -10 16 -5 0 -10 7 -10 16 0 8 -7 22 -15 30 -8 9 -15 23 -15 33 0 14 11
17 60 18 45 2 60 -1 60 -12 0 -23 15 -25 41 -7 27 19 59 26 59 13 0 -5 16 -9
35 -8 19 1 30 4 24 8 -7 4 -4 9 6 13 28 10 32 7 33 -24 1 -36 10 -53 23 -44 5
3 17 0 25 -7 20 -16 64 -18 64 -3 0 20 33 27 46 9 11 -14 16 -15 47 -1 20 8
38 12 41 8 3 -3 6 0 6 6 0 11 -19 16 -47 13 -7 -1 -13 3 -13 9 0 5 12 10 26
10 14 0 23 4 20 9 -8 13 19 21 74 21 53 0 76 17 67 51 -10 38 25 60 93 58 33
-1 63 1 67 4 10 11 83 8 83 -3z m165 -9 c-3 -6 -11 -11 -17 -11 -6 0 -6 6 2
15 14 17 26 13 15 -4z m289 4 c8 -8 17 -15 20 -15 3 0 6 7 6 15 0 8 5 15 10
15 6 0 10 -15 10 -32 0 -18 5 -51 9 -73 5 -22 13 -110 16 -195 4 -85 8 -166 9
-180 1 -22 -3 -25 -39 -27 -22 -1 -42 -2 -45 -3 -37 -12 -100 -22 -100 -16 0
3 9 23 20 43 11 21 20 45 20 53 0 8 8 25 18 38 21 27 52 21 52 -9 0 -10 4 -19
9 -19 14 0 23 18 12 24 -5 3 -6 25 -4 50 3 26 1 46 -6 50 -6 4 -11 18 -11 31
0 13 -4 27 -10 30 -5 3 -10 37 -10 75 l0 68 -32 7 c-18 4 -36 9 -40 12 -12 7
20 61 39 66 30 8 31 8 47 -8z m-2674 -33 c0 -13 -12 -22 -22 -16 -10 6 -1 24
13 24 5 0 9 -4 9 -8z m118 -28 c13 -10 13 -13 -4 -22 -32 -18 -7 -26 45 -16
27 6 58 7 69 3 10 -4 47 -5 81 -2 49 5 61 9 61 23 0 38 60 55 98 29 25 -18 21
-51 -7 -48 -9 2 -36 -1 -60 -5 -49 -9 -48 2 -16 -145 17 -80 17 -362 -1 -393
-9 -16 -62 -35 -124 -45 -45 -6 -62 -22 -33 -29 12 -3 24 -13 28 -21 7 -20 -5
-83 -16 -83 -5 0 -9 -7 -9 -15 0 -17 2 -17 24 -9 8 3 12 12 9 20 -4 11 12 14
87 14 69 0 91 -3 88 -12 -3 -7 -10 -13 -16 -13 -5 0 -14 -3 -18 -7 -7 -7 -2
-9 38 -12 7 -1 13 6 14 14 2 35 5 40 24 40 18 0 20 -5 16 -71 -3 -40 -8 -75
-13 -80 -4 -4 -30 -3 -56 3 -34 7 -52 7 -61 -1 -8 -7 -39 -9 -83 -5 -79 6 -82
4 -88 -75 -3 -52 -15 -163 -20 -186 -2 -11 -14 -26 -26 -34 l-22 -13 7 93 c3
52 11 175 16 273 7 114 15 185 23 195 10 12 9 14 -3 9 -48 -17 -58 -18 -80 0
-19 16 -21 21 -11 40 7 13 16 20 22 17 5 -4 9 9 9 29 0 20 -4 36 -10 36 -5 0
-10 11 -10 25 0 14 5 25 10 25 6 0 10 23 10 50 0 28 -4 50 -10 50 -11 0 -14
89 -4 115 5 13 9 14 15 4 5 -9 10 -5 14 14 4 15 11 27 16 27 5 0 9 10 9 23
l-1 22 -19 -24 c-18 -21 -20 -21 -20 -5 -1 18 -1 18 -14 1 -13 -16 -14 -12
-18 35 -2 29 0 58 4 65 5 7 4 13 -4 16 -10 3 -11 8 0 26 15 25 15 34 2 26 -13
-8 -13 1 2 28 9 17 12 19 16 7 3 -8 12 -20 20 -26z m57 14 c0 -20 40 -17 62 4
20 18 23 19 23 5 0 -12 8 -17 27 -17 17 0 23 -4 18 -9 -6 -5 -41 -10 -80 -11
-89 -2 -88 -2 -78 13 4 6 8 15 9 20 1 4 2 10 3 14 2 10 16 -7 16 -19z m-309
-1 c3 -3 3 -19 -1 -36 -6 -29 -9 -31 -56 -31 l-49 0 0 38 0 38 50 -1 c28 -1
53 -4 56 -8z m84 -33 c0 -2 -7 -4 -15 -4 -8 0 -15 4 -15 10 0 5 7 7 15 4 8 -4
15 -8 15 -10z m1793 -41 c-7 -2 -19 -2 -25 0 -7 3 -2 5 12 5 14 0 19 -2 13 -5z
m-3278 -150 c-3 -18 -10 -33 -14 -33 -9 0 -3 136 7 160 9 20 15 -87 7 -127z
m3300 127 c-3 -5 -18 -10 -33 -9 -24 0 -25 1 -7 9 28 12 47 12 40 0z m-2598
-43 c1 -19 -2 -47 -7 -63 -7 -23 -8 -16 -9 40 -1 69 10 85 16 23z m117 -217
c10 -179 18 -250 26 -245 5 3 24 -1 42 -9 84 -37 105 -44 141 -50 20 -4 37
-11 37 -16 0 -6 11 -10 25 -10 14 0 29 -8 35 -20 16 -30 -6 -35 -152 -35 -143
0 -144 -1 -131 -77 l6 -38 91 0 c50 0 107 -3 127 -6 34 -6 37 -9 43 -48 9 -52
9 -48 2 -126 -14 -164 -15 -167 -48 -174 -17 -3 -68 -6 -114 -6 -102 0 -110
-9 -100 -109 12 -107 12 -114 0 -118 -6 -2 -11 8 -11 24 0 15 -8 59 -16 97 -9
38 -15 72 -12 75 2 4 0 13 -6 21 -5 10 -9 -20 -9 -83 0 -141 -18 -116 -38 52
-4 32 -13 56 -21 59 -11 4 -12 -11 -9 -77 6 -94 1 -128 -18 -135 -8 -3 -13 -2
-12 2 6 24 -16 282 -23 275 -5 -5 -14 -55 -21 -111 -9 -80 -14 -99 -22 -85
-11 18 -13 161 -8 551 2 178 3 183 22 177 15 -5 22 0 30 20 16 42 13 65 -7 58
-10 -4 -22 -12 -26 -20 -17 -27 -28 -12 -25 35 3 45 5 47 33 49 17 0 36 3 44
5 11 2 15 -10 17 -47 2 -27 6 -77 8 -110 3 -33 5 -68 5 -77 1 -10 6 -18 12
-18 8 0 10 50 7 175 -4 133 -2 175 8 175 6 0 14 10 18 23 9 35 7 47 -9 47 -8
0 -15 -5 -15 -11 0 -5 -4 -8 -10 -4 -5 3 -9 26 -8 50 0 40 3 45 23 45 12 0 29
7 36 16 12 15 15 12 20 -22 4 -21 10 -86 13 -144z m-1519 106 c-6 -39 -10 -45
-22 -35 -10 9 -17 9 -25 1 -21 -21 -29 -13 -26 26 3 31 6 37 24 34 12 -1 27 4
34 13 19 23 22 13 15 -39z m1291 13 c6 -5 12 -41 12 -80 1 -40 4 -74 7 -77 2
-3 -15 -19 -39 -36 -24 -17 -41 -36 -39 -43 2 -7 -5 -20 -16 -29 -15 -13 -17
-22 -10 -41 5 -13 8 -38 7 -56 -1 -18 2 -39 5 -47 10 -23 -6 -41 -49 -50 -47
-11 -168 -15 -182 -6 -6 4 -15 -1 -20 -10 -7 -13 -12 -9 -25 22 -22 53 -37 69
-69 77 -14 4 -40 19 -57 33 -28 23 -30 30 -25 65 6 34 4 39 -14 39 -31 0 -35
55 -6 98 13 19 24 42 24 51 0 21 -19 47 -40 54 -8 3 5 6 30 8 25 1 79 4 120 6
41 2 89 3 107 3 17 0 34 4 38 10 3 5 23 8 43 5 20 -3 60 0 87 7 51 14 91 12
111 -3z m-2587 -77 c1 -31 6 -100 12 -152 26 -253 32 -793 9 -849 -15 -36 -29
-40 -31 -8 -1 14 -4 9 -8 -13 l-7 -35 -16 50 c-12 41 -14 75 -7 190 4 77 9
174 11 215 1 41 6 78 11 81 4 3 10 34 13 67 3 49 1 62 -10 62 -11 0 -13 -13
-10 -57 2 -39 0 -53 -6 -43 -5 8 -10 39 -10 68 0 40 4 52 15 52 12 0 15 13 15
55 0 30 -4 55 -10 55 -5 0 -10 -5 -10 -11 0 -5 -5 -7 -11 -3 -8 4 -8 9 -1 13
14 8 22 54 15 81 -4 16 -8 18 -19 9 -12 -9 -14 -4 -14 30 0 22 4 41 10 41 5 0
9 -10 7 -21 -1 -12 3 -24 9 -26 18 -6 17 112 -1 130 -8 8 -11 18 -7 22 4 5 -3
5 -15 2 -19 -4 -23 -1 -23 19 0 16 6 24 18 24 10 0 27 6 38 14 25 19 31 8 33
-62z m5978 -14 c-3 -8 -6 -5 -6 6 -1 11 2 17 5 13 3 -3 4 -12 1 -19z m-1884
-131 c3 -65 11 -124 16 -131 7 -9 7 -22 -1 -44 -9 -24 -9 -36 1 -55 7 -13 12
-30 10 -38 -4 -22 12 -89 22 -89 4 0 13 9 19 20 6 11 15 18 21 15 13 -9 -9
-46 -30 -52 -13 -3 -17 -12 -13 -29 3 -16 9 -23 18 -20 18 7 45 -4 38 -15 -3
-5 -13 -9 -23 -9 -36 0 -42 -45 -37 -266 2 -115 5 -216 5 -224 1 -12 16 -15
71 -15 39 0 70 2 70 5 0 3 21 4 47 2 27 -1 131 -2 233 -2 102 0 226 -3 277 -6
79 -5 93 -9 98 -25 4 -12 16 -19 33 -20 38 -1 67 -14 67 -29 0 -9 38 -23 110
-40 108 -26 160 -30 183 -16 7 4 17 4 23 1 6 -4 16 0 22 9 7 9 25 18 42 19 23
2 30 -2 30 -17 0 -13 8 -20 22 -21 30 -2 43 -15 16 -15 -24 0 -38 -26 -20 -37
6 -4 24 -6 39 -5 15 1 28 -2 28 -8 0 -5 -11 -10 -25 -10 -14 0 -25 -4 -25 -10
0 -5 9 -10 20 -10 11 0 20 -4 20 -9 0 -13 -28 -33 -38 -27 -6 3 -15 -1 -22
-10 -11 -12 -10 -21 3 -50 10 -19 17 -42 17 -51 0 -14 -3 -13 -19 4 -12 13
-18 29 -14 42 4 16 1 21 -16 21 -25 0 -25 -2 -6 -59 12 -34 13 -46 4 -58 -15
-17 -4 -30 31 -36 21 -4 20 -4 -7 -6 -29 -1 -63 -22 -63 -40 0 -4 8 -7 18 -7
24 1 28 -17 6 -29 -17 -9 -19 -20 -18 -80 l2 -70 -36 1 c-19 1 -38 8 -43 15
-6 11 -9 10 -15 -4 -3 -10 -4 -20 -1 -23 7 -8 -13 -64 -23 -64 -11 0 -30 56
-30 87 0 13 -4 22 -9 18 -5 -3 -16 4 -24 16 -13 18 -18 19 -36 7 -12 -7 -21
-15 -21 -18 0 -4 -18 -6 -41 -5 -27 1 -44 7 -50 18 -14 23 -25 21 -33 -6 l-6
-22 -15 25 c-8 15 -10 29 -5 34 6 6 5 15 -1 23 -9 10 -8 17 2 29 16 20 13 63
-6 83 -12 12 -15 9 -21 -27 -5 -30 -11 -42 -24 -42 -9 0 -22 -10 -28 -22 -10
-22 -11 -21 -11 10 -1 31 -2 32 -43 31 -43 0 -101 -17 -67 -18 17 -1 29 -30
28 -66 0 -19 -1 -18 -11 3 -15 31 -42 28 -59 -8 l-14 -30 -2 52 c-1 37 1 47 7
33 7 -16 9 -17 9 -3 1 9 7 18 14 21 9 3 9 8 -2 18 -10 11 -15 11 -18 2 -3 -7
-10 -13 -16 -13 -14 0 -37 -46 -37 -72 0 -10 -5 -18 -11 -18 -5 0 -8 -4 -5 -9
3 -4 6 -105 6 -224 1 -180 -1 -220 -15 -244 l-16 -28 5 41 c3 23 1 54 -4 70
l-8 29 -1 -35 c-2 -46 -11 -80 -23 -80 -5 0 -8 88 -6 220 l3 220 28 23 28 22
-4 120 c-2 78 -6 112 -11 98 -5 -13 -13 -23 -18 -23 -13 0 -1 50 18 71 10 11
14 41 14 102 l0 86 -37 8 c-38 8 -377 10 -466 3 -34 -3 -51 -9 -58 -22 -12
-22 -19 -148 -8 -148 4 0 8 -102 9 -226 0 -125 4 -232 7 -238 8 -12 4 -716 -3
-728 -3 -4 -22 -8 -43 -8 l-38 0 -7 204 c-3 112 -4 210 0 219 7 18 -7 22 -98
31 -34 4 -59 2 -63 -4 -4 -6 -12 -7 -18 -3 -19 12 -307 14 -329 2 -15 -8 -24
-7 -38 6 -12 11 -20 13 -25 5 -5 -8 -10 -8 -20 0 -10 8 -15 8 -20 -1 -6 -8
-10 -7 -17 2 -7 10 -11 11 -14 3 -3 -7 -14 -10 -25 -7 -10 3 -39 0 -62 -6 -24
-6 -98 -11 -165 -12 -69 0 -122 -5 -122 -10 0 -6 -18 -8 -40 -5 -67 8 -70 4
-70 -88 0 -44 -4 -96 -9 -114 -6 -20 -6 -32 0 -32 5 0 9 -12 10 -27 l1 -28 11
28 c12 29 31 38 23 10 -2 -10 -8 -38 -11 -63 -4 -25 -18 -65 -31 -89 -13 -24
-24 -49 -24 -55 0 -7 -7 -21 -16 -32 -14 -18 -15 -17 -11 14 4 39 -12 56 -52
50 -31 -5 -32 -2 -5 58 8 17 13 65 13 110 0 143 -4 254 -9 254 -8 0 -6 344 2
350 4 3 10 37 13 75 5 68 15 102 15 54 0 -22 1 -22 21 10 11 18 19 43 17 55
-3 24 -38 36 -38 12 0 -8 -4 -18 -10 -21 -6 -4 -10 8 -10 28 0 31 2 34 24 30
27 -6 30 5 28 122 -1 47 2 65 8 54 5 -8 10 -111 12 -227 2 -117 6 -212 9 -212
4 0 10 -40 14 -89 5 -65 4 -94 -6 -109 -16 -26 -5 -40 16 -22 13 10 19 10 33
-2 18 -15 52 -13 52 3 0 9 43 3 63 -8 5 -3 56 -6 115 -6 104 -2 107 -1 119 23
11 22 13 22 13 5 0 -11 5 -27 10 -35 8 -13 11 -12 24 5 9 11 16 14 16 8 0 -13
110 -12 280 3 36 3 71 5 78 4 12 0 37 0 70 1 9 0 65 -2 124 -4 102 -4 108 -3
115 17 3 11 7 89 8 171 2 202 3 215 16 215 6 0 9 -6 6 -14 -3 -8 1 -17 8 -20
17 -6 28 41 22 94 -3 24 -10 36 -23 39 -18 4 -18 4 1 11 19 7 20 16 21 216 0
140 5 222 13 247 13 37 12 54 -5 222 -9 80 -14 66 -14 -36 0 -96 -6 -139 -20
-139 -13 0 -21 126 -26 390 -4 224 -6 257 -21 268 -9 6 -24 10 -32 7 -9 -2
-23 0 -31 6 -11 8 -3 9 31 6 l47 -4 -2 188 c-1 174 0 189 17 189 9 0 17 5 17
12 0 7 3 8 9 3 5 -6 11 -63 14 -128z m-2851 58 c3 -14 1 -25 -3 -25 -5 0 -9
11 -9 25 0 14 2 25 4 25 2 0 6 -11 8 -25z m190 -102 c5 -50 4 -71 -8 -418 -10
-279 -8 -404 5 -439 10 -25 13 -27 28 -15 9 8 14 9 10 3 -4 -7 0 -17 8 -24 22
-18 18 -35 -10 -54 -38 -25 -51 -20 -63 27 -14 52 -32 173 -33 224 l-1 38 -8
-40 c-5 -22 -11 -61 -15 -87 -4 -31 -11 -48 -20 -48 -17 0 -22 29 -31 164 -6
102 -19 113 -28 25 -13 -113 -22 -115 -24 -4 -2 125 5 178 20 152 9 -17 38
-24 38 -9 0 4 5 34 10 67 6 33 11 115 11 182 l0 122 27 13 c27 13 38 38 28 63
-6 17 -46 8 -46 -11 0 -8 -5 -14 -10 -14 -6 0 -9 20 -8 48 l3 47 36 -3 c30 -3
37 1 42 17 10 40 34 24 39 -26z m38 24 c0 -8 -7 -14 -15 -14 -11 0 -12 4 -4
14 6 7 13 13 15 13 2 0 4 -6 4 -13z m2840 -105 c0 -4 -14 -9 -31 -10 -19 -2
-28 2 -24 8 7 12 55 14 55 2z m-122 -9 c-10 -2 -28 -2 -40 0 -13 2 -5 4 17 4
22 1 32 -1 23 -4z m-4241 -35 c-3 -8 -6 -5 -6 6 -1 11 2 17 5 13 3 -3 4 -12 1
-19z m4505 -85 c32 -36 38 -92 31 -298 -6 -199 -9 -214 -43 -215 -13 0 -15 19
-12 122 3 94 1 120 -8 111 -7 -6 -15 -60 -19 -127 -7 -112 -14 -142 -29 -120
-4 6 -13 13 -21 16 -11 3 -14 22 -12 83 2 53 -2 80 -10 86 -7 4 -13 29 -14 56
-1 27 -5 55 -9 62 -4 7 -5 28 -1 47 4 26 3 35 -7 33 -28 -3 -131 4 -109 8 19
4 21 7 10 14 -12 8 -11 12 4 23 9 7 17 21 17 31 0 11 5 15 15 11 16 -6 55 13
55 26 0 5 -12 9 -27 9 -27 2 -27 2 -3 6 14 2 34 8 45 13 11 5 43 11 70 13 28
2 53 4 56 5 3 1 13 -6 21 -15z m-599 0 c-7 -2 -19 -2 -25 0 -7 3 -2 5 12 5 14
0 19 -2 13 -5z m-3394 -10 c0 -5 -4 -17 -9 -28 -8 -18 -9 -17 -9 8 -1 15 4 27
9 27 6 0 10 -3 9 -7z m-12 -75 c-3 -8 -6 -5 -6 6 -1 11 2 17 5 13 3 -3 4 -12
1 -19z m3 -53 c0 -8 -4 -15 -8 -15 -5 0 -9 7 -9 15 0 8 4 15 9 15 4 0 8 -7 8
-15z m-9 -121 c-5 -21 -9 -30 -10 -19 -1 24 10 67 15 62 3 -2 0 -22 -5 -43z
m-4 -86 c-3 -7 -5 -2 -5 12 0 14 2 19 5 13 2 -7 2 -19 0 -25z m3814 -31 c-8
-8 -11 -7 -11 4 0 20 13 34 18 19 3 -7 -1 -17 -7 -23z m2978 -101 c-5 -6 -8
15 -8 50 l2 59 7 -50 c4 -27 3 -54 -1 -59z m-4844 54 c-3 -5 -10 -10 -16 -10
-5 0 -9 5 -9 10 0 6 7 10 16 10 8 0 12 -4 9 -10z m1201 -56 c-4 -9 -9 -15 -11
-12 -3 3 -3 13 1 22 4 9 9 15 11 12 3 -3 3 -13 -1 -22z m664 -16 c-11 -4 -27
-5 -36 -1 -15 6 -15 7 1 19 13 10 21 10 36 1 18 -11 18 -12 -1 -19z m-1860
-38 c-6 -11 -12 -20 -13 -20 -1 0 -3 19 -5 43 -3 41 -2 41 13 20 12 -17 13
-27 5 -43z m-1961 -34 c-9 -8 -10 -7 -5 7 3 10 7 28 7 40 2 16 3 14 6 -7 3
-16 -1 -34 -8 -40z m5231 -23 c0 -37 -23 -73 -46 -73 -7 0 -15 -8 -19 -19 -8
-27 -36 -47 -73 -54 l-33 -7 26 34 c14 18 25 40 25 48 0 16 63 78 80 78 5 0
12 9 15 20 10 30 25 14 25 -27z m-3384 -110 c10 -10 33 -18 53 -18 20 -1 71
-5 114 -9 71 -8 77 -7 77 10 0 16 2 16 10 4 6 -9 5 -19 -3 -28 -8 -11 -8 -13
4 -12 25 4 78 -12 91 -27 10 -12 9 -18 -5 -28 -21 -15 -22 -25 -2 -25 8 0 15
-7 15 -15 0 -12 -13 -14 -67 -10 -40 2 -72 0 -80 -7 -9 -7 -13 -7 -13 1 0 7
-17 9 -52 6 -35 -4 -54 -2 -60 7 -7 10 -11 10 -14 1 -3 -7 -12 -9 -19 -7 -8 3
-20 2 -27 -2 -7 -4 -23 -9 -35 -10 -22 -3 -23 0 -19 44 2 26 5 68 5 95 1 26 3
47 5 47 3 0 12 -8 22 -17z m1758 -31 c3 -21 6 -60 6 -89 l0 -52 -112 0 c-62 0
-128 -3 -147 -5 -19 -3 -39 -2 -45 1 -6 4 -31 8 -56 9 -25 1 -80 5 -124 8 -69
6 -81 5 -96 -11 -20 -22 -30 -58 -37 -131 -3 -28 -9 -50 -14 -47 -10 7 0 136
12 150 15 15 10 28 -7 21 -12 -4 -15 -2 -10 9 3 8 2 14 -2 14 -22 -4 -33 3
-30 19 2 12 -5 18 -24 20 -21 3 -28 -1 -29 -15 0 -12 -4 -9 -11 10 -9 26 -28
38 -28 17 0 -18 -17 -11 -23 9 -9 37 4 42 65 26 24 -6 27 -5 23 15 -2 13 -2
20 1 17 3 -3 17 -2 30 3 15 6 26 6 30 -1 3 -6 13 -7 23 -4 29 12 64 17 146 20
44 2 105 8 135 12 30 4 114 9 186 10 l132 1 6 -36z m-1127 -4 c-3 -7 -5 -2 -5
12 0 14 2 19 5 13 2 -7 2 -19 0 -25z m-327 12 c0 -5 -4 -10 -10 -10 -5 0 -10
5 -10 10 0 6 5 10 10 10 6 0 10 -4 10 -10z m410 -21 c0 -5 -4 -9 -10 -9 -5 0
-10 7 -10 16 0 8 5 12 10 9 6 -3 10 -10 10 -16z m250 -9 c0 -5 -4 -10 -10 -10
-5 0 -10 5 -10 10 0 6 5 10 10 10 6 0 10 -4 10 -10z m-166 -15 c6 -17 4 -18
-18 -9 -20 8 -21 24 -2 24 8 0 16 -7 20 -15z m2456 11 c0 -3 -4 -8 -10 -11 -5
-3 -10 -1 -10 4 0 6 5 11 10 11 6 0 10 -2 10 -4z m-2367 -21 c-3 -9 -8 -14
-10 -11 -3 3 -2 9 2 15 9 16 15 13 8 -4z m-493 -10 c-7 -8 -14 -15 -15 -15 -2
0 -5 7 -9 15 -4 10 1 15 16 15 17 0 18 -2 8 -15z m2810 -15 c0 -5 -2 -10 -4
-10 -3 0 -8 5 -11 10 -3 6 -1 10 4 10 6 0 11 -4 11 -10z m-2804 -38 c1 -13 -5
-22 -12 -22 -8 0 -14 11 -14 26 0 31 24 28 26 -4z m281 -4 c-3 -8 -6 -5 -6 6
-1 11 2 17 5 13 3 -3 4 -12 1 -19z m-76 -83 c-6 -45 -9 -51 -10 -24 -1 40 10
110 16 94 1 -6 -1 -37 -6 -70z m-1334 23 c-3 -8 -6 -5 -6 6 -1 11 2 17 5 13 3
-3 4 -12 1 -19z m15 -165 c-5 -10 -7 -94 -5 -188 1 -93 3 -206 4 -250 0 -44 5
-109 10 -145 9 -63 30 -360 30 -430 l0 -35 32 38 c17 20 35 37 40 37 4 0 7
-16 7 -35 0 -26 -11 -48 -47 -92 -90 -111 -126 -153 -133 -153 -4 0 -7 12 -7
28 0 77 -2 83 -24 72 -30 -16 -33 -7 -8 24 12 16 22 40 21 54 -2 58 -11 191
-17 267 -6 68 -5 83 9 94 9 7 16 22 16 32 0 10 5 21 10 24 6 3 10 12 10 18 0
7 -9 1 -20 -13 -17 -21 -21 -23 -30 -10 -13 20 -13 77 0 85 11 7 40 70 40 87
0 5 -10 0 -22 -12 -16 -15 -24 -17 -30 -8 -17 28 -8 47 24 50 38 4 79 51 61
69 -7 7 -9 25 -6 40 4 22 2 29 -11 29 -9 0 -16 -6 -16 -13 0 -7 -6 -22 -14
-33 -13 -17 -14 -13 -9 41 4 33 12 65 18 70 23 19 43 57 38 71 -8 21 -30 17
-36 -8 -10 -35 -17 -16 -10 25 3 20 9 34 14 31 5 -3 9 1 9 10 0 8 5 16 10 18
6 2 12 30 15 63 2 33 9 61 15 63 5 2 11 11 11 20 1 16 2 16 6 0 2 -9 0 -25 -5
-35z m1275 -30 c-3 -10 -5 -4 -5 12 0 17 2 24 5 18 2 -7 2 -21 0 -30z m593 2
c0 -24 -15 -42 -23 -28 -3 5 -3 20 0 35 6 33 23 27 23 -7z m645 24 c11 -17 2
-18 -19 -3 -17 12 -17 14 -4 14 9 0 20 -5 23 -11z m-425 -54 c-11 -13 -10 -19
4 -34 16 -17 16 -19 0 -25 -13 -5 -14 -10 -6 -18 17 -17 45 -1 39 22 -3 11 -3
20 0 20 11 0 30 -27 37 -53 5 -21 2 -29 -11 -34 -9 -4 -19 -1 -21 5 -3 9 -15
10 -39 6 -29 -6 -34 -4 -27 7 5 8 7 23 5 33 -1 11 0 39 4 64 5 32 10 41 17 34
8 -8 7 -16 -2 -27z m401 8 c-8 -15 -10 -15 -11 -2 0 17 10 32 18 25 2 -3 -1
-13 -7 -23z m-1336 -50 c-3 -21 -2 -30 1 -20 7 22 24 22 24 1 0 -9 7 -22 17
-29 10 -8 13 -17 8 -25 -7 -11 -10 -9 -16 6 -7 17 -9 15 -20 -13 -8 -18 -17
-33 -21 -33 -9 0 -11 111 -2 134 10 26 13 18 9 -21z m-1195 13 c0 -8 -7 -16
-15 -20 -12 -4 -13 -2 -2 14 14 24 17 25 17 6z m1891 -23 c-9 -16 -10 -14 -11
12 0 21 3 26 11 18 8 -8 8 -16 0 -30z m3659 -6 c0 -7 -7 -22 -15 -33 -14 -18
-14 -18 -15 7 0 14 3 29 7 32 11 11 23 8 23 -6z m60 -25 c0 -19 -39 -73 -40
-55 0 7 -7 10 -17 6 -13 -5 -15 -2 -10 11 4 10 7 23 7 29 0 7 4 6 10 -3 9 -13
10 -13 10 1 0 19 20 40 32 33 4 -3 8 -13 8 -22z m-3061 -11 c11 -7 10 -14 -5
-37 -16 -24 -19 -25 -22 -10 -2 10 2 22 10 27 10 6 10 9 1 9 -7 0 -13 5 -13
10 0 12 10 13 29 1z m-2692 -33 c-3 -8 -6 -5 -6 6 -1 11 2 17 5 13 3 -3 4 -12
1 -19z m5927 -3 c-4 -9 0 -15 9 -15 12 0 15 -47 22 -314 5 -232 4 -324 -5
-350 -16 -48 -30 -45 -32 7 0 23 -2 53 -3 67 -7 77 -15 572 -9 594 3 14 10 26
15 26 5 0 6 -7 3 -15z m-3620 -19 c12 5 16 0 16 -19 0 -14 5 -29 10 -32 6 -3
10 -2 10 4 0 6 6 8 14 5 15 -6 10 -54 -6 -54 -5 0 -6 -4 -3 -10 3 -5 -1 -10
-9 -10 -9 0 -16 -4 -16 -9 0 -14 -31 -22 -45 -11 -6 5 -15 7 -18 4 -13 -13
-19 50 -9 80 6 17 9 42 5 56 -6 24 -6 25 14 7 11 -10 27 -15 37 -11z m1232
-60 c5 -46 6 -82 2 -80 -5 3 -8 14 -8 24 0 10 -13 28 -30 40 -25 18 -30 28
-30 61 0 36 2 39 28 39 29 0 29 -1 38 -84z m-2152 47 c-9 -34 -9 -36 0 -100 5
-44 4 -53 -8 -53 -12 0 -14 7 -9 30 8 41 -7 38 -35 -8 l-23 -37 5 40 c3 22 6
52 6 68 0 20 5 27 20 27 13 0 20 7 20 18 0 15 17 42 27 42 2 0 0 -12 -3 -27z
m640 -17 c-3 -15 -8 -25 -11 -23 -2 3 -1 17 3 31 3 15 8 25 11 23 2 -3 1 -17
-3 -31z m1586 -13 c0 -7 -7 -13 -15 -13 -16 0 -19 9 -9 35 5 13 8 14 15 3 5
-7 9 -19 9 -25z m-259 -53 l-9 -45 -1 47 c-1 51 12 100 17 63 1 -11 -2 -40 -7
-65z m89 0 c0 -29 -4 -40 -15 -40 -11 0 -15 11 -15 40 0 29 4 40 15 40 11 0
15 -11 15 -40z m-4600 24 c0 -3 -7 -12 -15 -20 -16 -17 -18 -14 -9 10 6 15 24
23 24 10z m1180 -46 c0 -10 5 -18 10 -18 6 0 10 -5 10 -11 0 -5 -4 -7 -10 -4
-5 3 -10 1 -10 -5 0 -6 -4 -9 -9 -5 -5 3 -12 -3 -14 -12 -3 -10 -5 -3 -6 15 0
17 4 32 9 32 16 0 12 27 -6 34 -8 3 -12 11 -8 17 9 15 34 -17 34 -43z m-1170
8 c0 -3 -4 -8 -10 -11 -5 -3 -10 -1 -10 4 0 6 5 11 10 11 6 0 10 -2 10 -4z
m-57 -32 c-1 -10 0 -13 3 -6 3 6 15 12 25 12 11 0 18 -4 14 -9 -3 -5 0 -22 7
-37 8 -18 9 -29 3 -31 -6 -2 -9 -22 -7 -45 4 -37 2 -40 -14 -34 -14 4 -13 1 5
-12 22 -18 22 -50 0 -37 -5 4 -9 2 -9 -4 0 -5 5 -11 11 -13 14 -5 14 -91 0
-96 -6 -2 -10 -20 -10 -40 1 -20 4 -28 6 -17 6 34 41 47 137 52 122 7 124 6
141 -11 12 -12 32 -14 92 -11 41 3 82 10 89 16 11 9 14 8 14 -1 0 -9 27 -10
113 -4 163 10 487 12 487 2 0 -4 8 -8 17 -8 15 0 14 -2 -3 -15 -12 -9 -42 -14
-81 -15 -59 0 -61 -1 -72 -30 -12 -35 -26 -41 -17 -7 5 22 3 23 -54 23 -34 0
-60 -5 -60 -11 0 -5 -4 -4 -9 3 -10 16 -349 23 -479 10 -62 -6 -92 -4 -122 6
-22 7 -40 10 -40 6 0 -10 -49 -30 -54 -22 -7 12 -66 14 -66 2 0 -5 -6 -10 -14
-10 -20 0 -27 -39 -11 -64 11 -17 12 -30 5 -57 -7 -22 -7 -35 0 -37 5 -2 10
-34 10 -71 0 -39 5 -72 12 -79 9 -9 9 -12 0 -12 -7 0 -12 -8 -12 -17 0 -13 3
-14 12 -5 14 14 42 16 33 2 -3 -5 -1 -10 4 -10 6 0 11 5 11 10 0 6 7 10 15 10
35 0 13 -24 -122 -131 l-88 -70 -3 49 c-3 47 -4 49 -29 44 -31 -6 -25 8 22 50
20 17 37 45 44 70 7 26 13 162 15 343 3 165 5 322 5 348 1 34 5 47 14 44 6 -2
11 -13 10 -23z m5067 17 c0 -9 -41 -23 -48 -16 -2 2 -1 8 3 14 8 13 45 15 45
2z m-1729 -114 c-13 -13 -15 44 -3 83 6 20 8 16 10 -24 2 -27 -2 -54 -7 -59z
m1834 93 c-3 -5 -10 -10 -16 -10 -5 0 -9 5 -9 10 0 6 7 10 16 10 8 0 12 -4 9
-10z m-805 -24 c0 -7 15 -17 33 -22 l32 -8 -42 -3 -42 -4 5 -47 c5 -45 5 -46
-10 -22 -8 14 -13 33 -10 43 4 14 -1 17 -31 17 -24 0 -34 4 -29 11 4 7 21 9
40 6 19 -3 34 -2 34 4 0 5 -8 9 -17 9 -16 1 -16 2 1 15 25 19 36 19 36 1z
m685 4 c15 -6 9 -9 -25 -9 -34 0 -40 3 -25 9 11 5 22 9 25 9 3 0 14 -4 25 -9z
m-1846 -92 c1 -35 -17 -56 -20 -23 -2 25 -2 84 1 103 3 24 17 -35 19 -80z
m1046 52 c-3 -5 -10 -10 -16 -10 -5 0 -9 5 -9 10 0 6 7 10 16 10 8 0 12 -4 9
-10z m-1635 -25 c-5 -13 -9 -80 -8 -147 1 -68 -3 -132 -9 -143 -6 -11 -14 -67
-18 -125 -4 -58 -9 -116 -10 -130 -1 -14 -3 -45 -4 -70 -1 -32 -10 -59 -28
-88 -15 -24 -29 -38 -31 -32 -2 5 -17 10 -33 10 -28 0 -41 22 -20 34 13 8 23
106 13 119 -6 7 -6 36 -1 72 4 33 13 112 19 175 17 194 19 200 42 200 12 0 18
5 15 13 -3 7 1 21 9 32 8 10 14 27 14 37 0 15 44 68 56 68 2 0 -1 -11 -6 -25z
m1563 18 c-8 -3 -13 -22 -13 -44 0 -32 -3 -39 -20 -39 -17 0 -20 7 -20 38 0
46 1 47 37 48 15 1 22 -1 16 -3z m-2156 -25 c-3 -8 -6 -5 -6 6 -1 11 2 17 5
13 3 -3 4 -12 1 -19z m2072 4 c18 -33 -29 -58 -57 -30 -9 9 -12 7 -13 -12 0
-14 -3 -20 -5 -13 -3 7 -12 9 -20 6 -17 -6 -20 42 -3 53 8 4 9 0 4 -15 -9 -29
10 -27 32 4 21 29 49 32 62 7z m311 -14 c0 -5 -4 -8 -10 -8 -5 0 -10 10 -10
23 0 18 2 19 10 7 5 -8 10 -18 10 -22z m750 22 c0 -5 -4 -10 -10 -10 -5 0 -10
5 -10 10 0 6 5 10 10 10 6 0 10 -4 10 -10z m-5707 -31 c-17 -17 -37 -1 -22 17
8 10 15 12 23 4 7 -7 7 -13 -1 -21z m4389 -16 c5 -58 -1 -83 -14 -59 -5 9 -7
20 -3 25 3 5 1 12 -5 16 -11 7 -14 48 -3 58 15 15 21 5 25 -40z m458 27 c0
-21 -15 -27 -25 -10 -7 12 2 30 16 30 5 0 9 -9 9 -20z m816 -17 c-10 -10 -19
5 -10 18 6 11 8 11 12 0 2 -7 1 -15 -2 -18z m-2556 4 c0 -13 -36 -57 -46 -57
-2 0 -3 12 0 28 2 15 5 30 5 35 2 13 41 7 41 -6z m783 -63 c-7 -39 -7 -39 -13
-9 -8 40 0 83 11 63 5 -8 5 -32 2 -54z m-2384 -29 c-8 -26 -19 -51 -26 -57
-12 -10 -9 4 20 85 16 45 21 22 6 -28z m3228 23 c-3 -7 -5 -2 -5 12 0 14 2 19
5 13 2 -7 2 -19 0 -25z m383 12 c0 -11 -2 -20 -4 -20 -2 0 -6 9 -9 20 -3 11
-1 20 4 20 5 0 9 -9 9 -20z m-5140 0 c0 -5 -5 -10 -11 -10 -5 0 -7 5 -4 10 3
6 8 10 11 10 2 0 4 -4 4 -10z m4700 -4 c0 -3 -4 -8 -10 -11 -5 -3 -10 -1 -10
4 0 6 5 11 10 11 6 0 10 -2 10 -4z m30 -52 c0 -2 -9 -4 -21 -4 -11 0 -18 4
-14 10 5 8 35 3 35 -6z m-1177 -51 c-7 -2 -19 -2 -25 0 -7 3 -2 5 12 5 14 0
19 -2 13 -5z m-966 -25 c-3 -8 -6 -5 -6 6 -1 11 2 17 5 13 3 -3 4 -12 1 -19z
m155 5 c-6 -3 -10 -8 -8 -12 3 -4 -5 -8 -17 -8 -22 -2 -22 -2 2 18 13 11 27
17 30 13 3 -4 0 -9 -7 -11z m-12 -53 c0 -5 -2 -10 -4 -10 -3 0 -8 5 -11 10 -3
6 -1 10 4 10 6 0 11 -4 11 -10z m-143 -72 c-3 -7 -5 -2 -5 12 0 14 2 19 5 13
2 -7 2 -19 0 -25z m2472 15 c0 -5 -4 -17 -9 -28 -8 -18 -9 -17 -9 8 -1 15 4
27 9 27 6 0 10 -3 9 -7z m-2272 -65 c-3 -7 -5 -2 -5 12 0 14 2 19 5 13 2 -7 2
-19 0 -25z m240 -65 c-3 -10 -5 -4 -5 12 0 17 2 24 5 18 2 -7 2 -21 0 -30z
m880 -30 c-2 -38 -10 -79 -16 -93 -10 -21 -11 -17 -6 30 3 30 5 72 5 93 0 20
5 37 11 37 7 0 9 -23 6 -67z m1188 -30 c5 -67 3 -97 -7 -112 -20 -32 -28 -25
-28 24 0 42 21 187 27 182 1 -2 5 -44 8 -94z m-54 -100 c-17 -124 -28 -40 -14
102 l7 70 7 -59 c4 -33 4 -84 0 -113z m-1191 116 c0 -22 -4 -38 -8 -35 -8 5
-4 76 4 76 2 0 4 -18 4 -41z m-1388 -31 c-2 -27 -9 -48 -14 -48 -7 0 -8 14 -4
38 3 20 6 46 6 57 0 11 3 15 8 10 5 -6 7 -31 4 -57z m330 22 c-2 -16 -8 -30
-13 -30 -10 0 -12 31 -3 54 10 26 21 9 16 -24z m-1418 2 c-6 -4 -14 -14 -17
-22 -4 -10 -6 -8 -6 7 -1 12 5 23 12 26 16 6 24 -2 11 -11z m-64 -1 c0 -6 -4
-13 -10 -16 -5 -3 -10 1 -10 9 0 9 5 16 10 16 6 0 10 -4 10 -9z m2087 -13 c-3
-8 -6 -5 -6 6 -1 11 2 17 5 13 3 -3 4 -12 1 -19z m327 -15 c-3 -21 -11 -42
-17 -48 -6 -7 -8 -2 -3 15 3 14 6 35 6 48 0 12 5 22 10 22 7 0 8 -14 4 -37z
m-3698 -42 c8 6 14 18 14 27 0 8 3 13 6 10 8 -8 -16 -131 -28 -145 -8 -10 -4
-13 13 -14 23 -2 23 -2 2 -6 -13 -3 -20 -10 -17 -17 3 -8 -4 -16 -16 -19 -12
-3 -24 -15 -27 -26 -5 -21 -25 -30 -20 -10 1 6 -4 14 -10 16 -18 6 -16 -12 2
-31 21 -20 19 -25 -7 -18 -13 3 -19 1 -15 -5 9 -15 46 -23 53 -12 9 16 61 10
68 -7 5 -14 9 -14 23 -3 14 13 16 11 11 -13 -7 -35 18 -39 32 -5 5 12 9 16 9
10 1 -15 47 -17 56 -3 3 6 19 10 35 10 22 0 29 -5 32 -22 2 -16 10 -23 30 -25
25 -2 27 1 22 26 -4 20 -1 30 10 34 9 4 16 13 16 22 0 8 5 15 10 15 7 0 7 -6
1 -17 -5 -10 -12 -39 -16 -65 -8 -54 -15 -50 94 -50 51 0 67 3 80 19 22 26
121 107 149 122 13 7 30 10 38 7 16 -6 19 -52 4 -61 -5 -3 -10 -16 -10 -28 0
-19 2 -18 23 10 21 30 53 40 68 21 3 -5 20 3 39 17 35 26 120 36 120 15 0 -5
5 -10 11 -10 5 0 8 4 4 9 -9 15 36 25 49 11 8 -10 6 -12 -11 -7 -16 3 -20 1
-16 -10 4 -9 -2 -16 -16 -20 -11 -3 -21 -9 -21 -13 0 -5 -7 -16 -16 -24 -14
-15 -13 -16 6 -16 17 0 20 -4 14 -22 -9 -30 -40 -61 -53 -53 -6 3 -17 3 -23
-1 -14 -9 -19 -10 -108 -21 -62 -8 -817 -8 -1061 -1 -130 4 -155 14 -137 52 6
14 25 28 49 35 21 7 39 17 39 24 0 8 3 8 9 -2 7 -11 10 -10 15 5 7 20 99 84
122 84 8 0 14 5 14 10 0 6 6 10 14 10 7 0 19 7 26 15 14 16 50 21 50 6 0 -5
-6 -11 -12 -14 -7 -2 -4 -2 7 1 11 2 33 4 49 4 31 -1 56 18 56 43 0 11 -5 15
-15 11 -21 -8 -19 13 5 49 11 17 20 46 20 66 0 46 14 61 18 19 3 -26 6 -29 18
-19z m2524 39 c0 -5 -4 -10 -10 -10 -5 0 -10 5 -10 10 0 6 5 10 10 10 6 0 10
-4 10 -10z m480 0 c0 -5 -7 -10 -16 -10 -8 0 -12 5 -9 10 3 6 10 10 16 10 5 0
9 -4 9 -10z m1380 -12 c0 -18 -2 -20 -9 -8 -6 8 -7 18 -5 22 9 14 14 9 14 -14z
m-1824 -76 c-11 -10 -13 3 -7 43 l6 40 3 -39 c2 -21 1 -41 -2 -44z m204 63 c0
-8 -4 -15 -10 -15 -5 0 -10 7 -10 15 0 8 5 15 10 15 6 0 10 -7 10 -15z m388
-10 c-6 -14 -13 -24 -14 -22 -6 6 9 47 17 47 5 0 3 -11 -3 -25z m-1412 -60
c-3 -8 0 -16 7 -16 17 -2 20 -1 41 7 19 7 19 6 -2 -23 -12 -17 -22 -35 -22
-40 0 -4 -20 -9 -45 -10 -50 -2 -55 5 -25 32 11 10 20 23 20 30 0 10 19 35 28
35 2 0 2 -7 -2 -15z m-1669 -51 c-3 -3 -12 -4 -19 -1 -8 3 -5 6 6 6 11 1 17
-2 13 -5z m-170 -20 c-3 -3 -12 -4 -19 -1 -8 3 -5 6 6 6 11 1 17 -2 13 -5z
m5176 -13 c15 -8 27 -20 27 -28 0 -20 -12 -15 -45 19 -31 32 -30 32 18 9z
m-5186 -7 c-3 -3 -12 -4 -19 -1 -8 3 -5 6 6 6 11 1 17 -2 13 -5z m5808 -25 c4
-12 2 -26 -5 -33 -9 -8 -11 -6 -9 9 2 11 0 26 -4 33 -5 6 -4 12 2 12 5 0 13
-9 16 -21z m-2409 -41 c-7 -5 -3 -8 9 -9 11 0 14 -3 8 -6 -7 -2 -13 -9 -13
-15 0 -5 -10 -18 -22 -27 -15 -13 -19 -23 -14 -37 7 -19 8 -19 22 0 8 12 14
15 14 7 0 -9 8 -11 28 -7 15 4 47 8 72 10 25 2 50 5 55 7 6 1 17 -1 25 -4 8
-3 35 -8 60 -11 25 -2 64 -7 88 -10 24 -3 42 -1 42 4 0 5 11 9 25 8 25 -2 31
-14 17 -34 -10 -15 -38 -24 -48 -15 -5 4 -47 5 -94 1 -47 -3 -129 -6 -182 -6
-54 1 -98 -3 -98 -7 0 -5 -9 -5 -20 -2 -12 4 -28 1 -37 -7 -12 -9 -15 -9 -9 0
4 7 1 12 -9 12 -24 0 -7 20 18 21 20 0 21 1 3 8 -18 7 -18 8 -2 14 9 4 15 11
12 16 -3 4 6 36 21 71 21 47 29 58 34 43 3 -10 1 -21 -5 -25z m1771 10 c-3 -8
-6 -5 -6 6 -1 11 2 17 5 13 3 -3 4 -12 1 -19z m-507 -44 c0 -14 -4 -22 -10
-19 -5 3 -10 17 -10 31 0 14 4 22 10 19 6 -3 10 -17 10 -31z m530 22 c0 -3 -4
-8 -10 -11 -5 -3 -10 -1 -10 4 0 6 5 11 10 11 6 0 10 -2 10 -4z m2466 -31 c-9
-9 -16 -13 -16 -8 0 12 22 34 28 28 2 -2 -3 -11 -12 -20z m-2486 -21 c-8 -20
-6 -24 8 -24 10 0 28 7 40 16 19 13 22 13 22 1 0 -8 7 -17 15 -21 8 -3 15 -9
15 -13 -1 -27 -23 -33 -126 -38 -60 -3 -123 -8 -140 -10 -36 -6 -62 -29 -44
-40 5 -3 10 -13 10 -22 0 -9 8 -25 17 -36 17 -18 17 -19 0 -28 -14 -8 -17 -25
-17 -99 0 -73 -3 -90 -15 -90 -8 0 -15 -4 -15 -10 0 -14 -99 -13 -141 1 -64
22 -66 27 -64 157 1 72 6 126 14 140 7 13 11 25 9 28 -3 2 -39 5 -81 6 -42 2
-77 6 -77 10 0 5 4 8 9 8 5 0 12 12 16 28 5 19 9 23 14 12 7 -16 31 -25 31
-11 0 4 36 9 80 10 51 1 80 -2 80 -8 0 -17 21 -13 35 6 11 15 15 15 30 3 12
-10 18 -11 24 -2 4 6 29 12 56 13 63 1 146 19 164 35 22 20 41 6 31 -22z
m-2505 -5 c16 -16 37 -23 76 -25 51 -3 199 -14 245 -18 11 -1 25 -5 31 -9 7
-4 53 -7 103 -6 55 1 96 -3 103 -10 17 -17 0 -25 -48 -26 -24 0 -46 -3 -50 -6
-3 -4 -18 -4 -33 0 -15 4 -43 4 -62 0 -47 -9 -481 -18 -550 -10 -47 5 -55 9
-54 26 2 54 3 55 37 55 20 0 44 9 57 20 25 22 40 26 40 10 0 -16 50 -12 56 5
8 21 22 19 49 -6z m3141 -18 c-4 -5 -1 -11 6 -13 8 -3 5 -14 -11 -34 l-23 -29
7 30 c10 45 14 55 20 55 4 0 4 -4 1 -9z m-3426 -26 c0 -8 -7 -15 -15 -15 -26
0 -18 20 13 29 1 1 2 -6 2 -14z m1644 5 c17 -6 26 -6 26 0 0 14 27 12 33 -2 4
-10 7 -10 14 0 11 15 67 6 84 -14 10 -12 -8 -14 -118 -13 -72 1 -137 5 -144
10 -12 7 -11 9 1 9 13 0 13 1 0 10 -20 13 70 13 104 0z m226 -21 c0 -5 -9 -9
-20 -9 -22 0 -27 16 -7 23 15 5 27 -1 27 -14z m153 8 c3 2 16 2 28 -2 32 -11
4 -23 -46 -20 -22 2 -58 3 -79 4 -25 1 -36 5 -30 10 12 13 74 18 100 9 12 -4
24 -4 27 -1z m-2880 -4 c-7 -2 -21 -2 -30 0 -10 3 -4 5 12 5 17 0 24 -2 18 -5z
m107 3 c0 -3 -4 -8 -10 -11 -5 -3 -10 -1 -10 4 0 6 5 11 10 11 6 0 10 -2 10
-4z m130 -16 c0 -5 -7 -7 -15 -4 -8 4 -12 10 -9 15 6 11 24 2 24 -11z m1514
-14 c-3 -8 -12 -12 -21 -9 -12 5 -12 7 -1 14 20 13 28 11 22 -5z m-5104 -62
c0 -8 -5 -12 -10 -9 -6 4 -8 11 -5 16 9 14 15 11 15 -7z m7037 -16 c-3 -8 -6
-5 -6 6 -1 11 2 17 5 13 3 -3 4 -12 1 -19z m-7063 -93 c3 -9 -3 -19 -14 -25
-18 -10 -19 -9 -8 15 13 29 14 30 22 10z m7066 -49 c0 -8 -6 -16 -14 -19 -10
-4 -12 0 -9 14 6 22 23 26 23 5z m-7080 -17 c0 -11 -4 -18 -10 -14 -5 3 -7 12
-3 20 7 21 13 19 13 -6z m-5 -69 c3 -5 2 -10 -4 -10 -5 0 -13 5 -16 10 -3 6
-2 10 4 10 5 0 13 -4 16 -10z m-15 -30 c0 -5 -2 -10 -4 -10 -3 0 -8 5 -11 10
-3 6 -1 10 4 10 6 0 11 -4 11 -10z m7100 -12 c0 -17 -18 -44 -24 -37 -8 7 5
49 15 49 5 0 9 -6 9 -12z m-560 -72 c0 -3 -4 -8 -10 -11 -5 -3 -10 -1 -10 4 0
6 5 11 10 11 6 0 10 -2 10 -4z m-1059 -68 c25 5 30 -71 7 -106 -18 -27 -63
-46 -81 -35 -19 11 -68 11 -72 -1 -2 -6 -6 -23 -9 -38 -8 -34 -64 -88 -85 -81
-12 4 -13 3 -3 -5 22 -15 -2 -88 -31 -96 -32 -8 -51 15 -42 54 8 35 32 50 47
29 8 -11 9 -10 4 4 -3 10 -6 23 -6 28 0 5 -11 7 -25 5 -29 -5 -28 -8 -11 64
17 71 36 102 58 96 13 -3 19 4 24 30 7 38 16 47 62 62 32 11 34 10 45 -18 15
-39 23 -38 42 7 21 51 38 59 50 25 6 -18 16 -26 26 -24z m1566 10 c-3 -8 -6
-5 -6 6 -1 11 2 17 5 13 3 -3 4 -12 1 -19z m-1847 -18 c0 -5 -2 -10 -4 -10 -3
0 -8 5 -11 10 -3 6 -1 10 4 10 6 0 11 -4 11 -10z m440 -62 c0 -44 -5 -66 -19
-84 -11 -15 -22 -20 -26 -14 -3 5 -17 10 -30 10 -52 0 -74 32 -40 60 8 7 15
18 15 25 0 20 68 75 85 69 11 -5 15 -22 15 -66z m-5670 -17 c0 -6 -4 -13 -10
-16 -5 -3 -10 1 -10 9 0 9 5 16 10 16 6 0 10 -4 10 -9z m5087 -43 c-3 -8 -6
-5 -6 6 -1 11 2 17 5 13 3 -3 4 -12 1 -19z m1503 9 c0 -7 -4 -17 -9 -22 -13
-14 -16 -46 -6 -68 5 -12 2 -24 -9 -35 -15 -15 -16 -15 -17 3 0 11 -1 37 -2
58 -1 20 1 37 5 37 4 0 10 9 13 20 7 22 25 27 25 7z m-6593 -33 c-3 -3 -12 -4
-19 -1 -8 3 -5 6 6 6 11 1 17 -2 13 -5z m6523 -13 c0 -6 -4 -13 -10 -16 -5 -3
-10 1 -10 9 0 9 5 16 10 16 6 0 10 -4 10 -9z m-13 -63 c-3 -7 -5 -2 -5 12 0
14 2 19 5 13 2 -7 2 -19 0 -25z m73 -79 c0 -31 -4 -48 -10 -44 -5 3 -10 1 -10
-4 0 -6 -5 -11 -11 -11 -7 0 -9 12 -4 36 5 31 24 74 32 74 2 0 3 -23 3 -51z
m-1430 -41 c0 -14 -3 -34 -6 -43 -6 -14 -9 -14 -30 0 -21 13 -24 13 -24 1 0
-8 -5 -18 -12 -22 -11 -7 -11 -5 10 45 3 9 1 12 -6 7 -9 -6 -9 -1 -1 17 14 30
50 50 61 33 4 -6 8 -23 8 -38z m1410 -172 c-7 -7 -10 14 -9 60 l1 69 9 -60 c6
-38 5 -63 -1 -69z m-1365 35 c7 -24 -9 -69 -19 -53 -5 8 -13 9 -25 2 -32 -17
-91 -19 -91 -3 0 30 40 92 62 95 28 4 65 -17 73 -41z m1266 3 c-9 -28 -9 -29
-10 -3 -1 14 2 29 6 32 11 12 13 2 4 -29z m-7161 -34 c0 -5 -4 -10 -10 -10 -5
0 -10 5 -10 10 0 6 5 10 10 10 6 0 10 -4 10 -10z m2620 -30 c0 -5 -5 -10 -11
-10 -5 0 -7 5 -4 10 3 6 8 10 11 10 2 0 4 -4 4 -10z m5007 -30 c1 -21 1 -21
-3 -3 -3 12 -13 24 -22 27 -12 3 -11 4 3 3 14 -2 21 -10 22 -27z m240 24 c-3
-3 -12 -4 -19 -1 -8 3 -5 6 6 6 11 1 17 -2 13 -5z m-7157 -10 c0 -3 -21 -24
-46 -47 -66 -60 -110 -73 -65 -19 11 12 26 22 35 22 9 0 16 7 16 16 0 8 4 13
9 10 5 -3 14 1 21 9 12 15 30 20 30 9z m6430 -29 c0 -9 -9 -15 -22 -15 -22 1
-23 1 -4 15 25 19 26 19 26 0z m482 -67 c-9 -9 -12 -7 -12 12 0 19 3 21 12 12
9 -9 9 -15 0 -24z m58 11 c0 -5 -4 -9 -10 -9 -5 0 -10 7 -10 16 0 8 5 12 10 9
6 -3 10 -10 10 -16z m-790 7 c0 -2 -7 -9 -15 -16 -12 -10 -15 -10 -15 4 0 9 7
16 15 16 8 0 15 -2 15 -4z m270 -5 c0 -6 -4 -13 -10 -16 -5 -3 -10 1 -10 9 0
9 5 16 10 16 6 0 10 -4 10 -9z"/>
<path d="M8152 6562 c-8 -17 -9 -29 -2 -36 7 -7 10 -3 10 10 0 11 5 25 11 31
6 6 7 13 2 16 -4 3 -14 -6 -21 -21z"/>
<path d="M8180 6530 c0 -5 12 -10 26 -10 14 0 23 4 19 10 -3 6 -15 10 -26 10
-10 0 -19 -4 -19 -10z"/>
<path d="M8100 6500 c0 -11 5 -20 10 -20 6 0 10 9 10 20 0 11 -4 20 -10 20 -5
0 -10 -9 -10 -20z"/>
<path d="M8338 6513 c6 -2 18 -2 25 0 6 3 1 5 -13 5 -14 0 -19 -2 -12 -5z"/>
<path d="M8943 6505 c-8 -22 6 -33 17 -15 13 20 12 30 0 30 -6 0 -13 -7 -17
-15z"/>
<path d="M8033 6493 c-22 -8 -14 -23 12 -23 14 0 25 4 25 9 0 11 -21 19 -37
14z"/>
<path d="M8432 6489 c2 -7 10 -15 17 -17 8 -3 12 1 9 9 -2 7 -10 15 -17 17 -8
3 -12 -1 -9 -9z"/>
<path d="M8780 6480 c0 -5 5 -10 10 -10 6 0 10 5 10 10 0 6 -4 10 -10 10 -5 0
-10 -4 -10 -10z"/>
<path d="M8380 6474 c0 -10 31 -36 37 -31 3 3 -2 13 -10 22 -16 15 -27 19 -27
9z"/>
<path d="M7280 6454 c0 -8 5 -12 10 -9 6 4 8 11 5 16 -9 14 -15 11 -15 -7z"/>
<path d="M8000 6450 c0 -6 7 -10 15 -10 8 0 15 2 15 4 0 2 -7 6 -15 10 -8 3
-15 1 -15 -4z"/>
<path d="M8305 6450 c-3 -5 -1 -10 4 -10 6 0 11 5 11 10 0 6 -2 10 -4 10 -3 0
-8 -4 -11 -10z"/>
<path d="M7478 6443 c6 -2 18 -2 25 0 6 3 1 5 -13 5 -14 0 -19 -2 -12 -5z"/>
<path d="M7180 6424 l-25 -14 23 -6 c23 -7 31 -34 10 -34 -7 -1 0 -8 16 -16
20 -11 31 -13 39 -5 8 8 5 11 -11 11 -19 0 -21 4 -16 24 3 14 2 31 -3 39 -7
13 -11 14 -33 1z"/>
<path d="M7640 6415 c0 -14 5 -25 10 -25 6 0 10 11 10 25 0 14 -4 25 -10 25
-5 0 -10 -11 -10 -25z"/>
<path d="M7730 6429 c0 -5 5 -7 10 -4 6 3 10 8 10 11 0 2 -4 4 -10 4 -5 0 -10
-5 -10 -11z"/>
<path d="M7317 6424 c-14 -14 -7 -35 11 -32 9 2 17 10 17 17 0 16 -18 25 -28
15z"/>
<path d="M7240 6400 c0 -11 5 -20 10 -20 6 0 10 9 10 20 0 11 -4 20 -10 20 -5
0 -10 -9 -10 -20z"/>
<path d="M7922 6380 c0 -14 2 -19 5 -12 2 6 2 18 0 25 -3 6 -5 1 -5 -13z"/>
<path d="M7540 6346 c0 -20 5 -36 10 -36 6 0 10 13 10 29 0 17 -4 33 -10 36
-6 4 -10 -8 -10 -29z"/>
<path d="M7095 6351 c-30 -6 -29 -7 18 -20 52 -15 61 -13 51 13 -6 17 -19 18
-69 7z"/>
<path d="M8898 6353 c12 -2 32 -2 45 0 12 2 2 4 -23 4 -25 0 -35 -2 -22 -4z"/>
<path d="M7385 6341 c-3 -5 -1 -12 5 -16 5 -3 10 1 10 9 0 18 -6 21 -15 7z"/>
<path d="M8865 6330 c-3 -5 -1 -10 4 -10 6 0 11 5 11 10 0 6 -2 10 -4 10 -3 0
-8 -4 -11 -10z"/>
<path d="M6920 6321 c0 -5 21 -25 46 -46 39 -32 47 -35 57 -22 7 8 19 17 27
20 8 4 -3 5 -25 4 -33 -2 -39 1 -37 16 2 10 -3 17 -13 17 -8 0 -15 5 -15 10 0
6 -9 10 -20 10 -11 0 -20 -4 -20 -9z"/>
<path d="M7085 6300 c-18 -8 -17 -9 8 -9 15 -1 27 4 27 9 0 12 -8 12 -35 0z"/>
<path d="M9360 6296 c0 -9 5 -16 10 -16 6 0 10 4 10 9 0 6 -4 13 -10 16 -5 3
-10 -1 -10 -9z"/>
<path d="M9275 6290 c-4 -6 6 -10 22 -10 22 0 25 2 13 10 -19 12 -27 12 -35 0z"/>
<path d="M9470 6260 c0 -5 5 -10 11 -10 5 0 7 5 4 10 -3 6 -8 10 -11 10 -2 0
-4 -4 -4 -10z"/>
<path d="M9480 6210 c-8 -5 -12 -11 -9 -14 7 -8 49 5 49 15 0 12 -21 11 -40
-1z"/>
<path d="M9497 6099 c6 -22 23 -26 23 -5 0 8 -6 16 -14 19 -10 4 -12 0 -9 -14z"/>
<path d="M9732 6100 c-10 -16 -10 -24 0 -40 7 -11 16 -20 20 -20 5 0 8 -9 8
-20 0 -20 14 -27 24 -11 3 5 -1 14 -9 21 -9 7 -15 29 -15 51 0 43 -9 49 -28
19z"/>
<path d="M9667 6103 c-3 -4 1 -16 8 -26 9 -13 15 -15 20 -7 4 7 1 19 -8 27 -8
8 -17 11 -20 6z"/>
<path d="M9600 6064 c0 -8 5 -12 10 -9 6 4 8 11 5 16 -9 14 -15 11 -15 -7z"/>
<path d="M9520 6031 c0 -6 17 -7 38 -4 51 8 53 13 4 13 -23 0 -42 -4 -42 -9z"/>
<path d="M9620 6030 c0 -5 9 -10 20 -10 11 0 20 5 20 10 0 6 -9 10 -20 10 -11
0 -20 -4 -20 -10z"/>
<path d="M10060 5830 c0 -5 5 -10 10 -10 6 0 10 5 10 10 0 6 -4 10 -10 10 -5
0 -10 -4 -10 -10z"/>
<path d="M10048 5775 c-21 -28 -23 -55 -5 -55 12 0 37 44 37 67 0 20 -13 15
-32 -12z"/>
<path d="M10080 5656 c0 -9 5 -16 10 -16 6 0 10 4 10 9 0 6 -4 13 -10 16 -5 3
-10 -1 -10 -9z"/>
<path d="M9593 5435 c-8 -9 -25 -10 -62 -4 -67 10 -223 8 -238 -4 -7 -5 -18
-5 -24 -1 -15 9 -189 8 -198 -2 -7 -6 -9 -56 -10 -239 -1 -124 5 -181 20 -190
4 -3 6 -12 2 -20 -6 -16 4 -18 92 -15 70 2 82 7 93 40 11 29 42 36 50 12 2 -7
12 -12 22 -12 10 0 22 -5 25 -10 4 -6 3 -10 -2 -9 -4 1 -15 1 -23 -1 -23 -2
20 -18 53 -19 17 -1 27 -6 27 -16 0 -13 12 -15 78 -10 182 14 180 13 191 48 6
18 8 77 5 132 -6 127 -6 125 -17 125 -5 0 -6 19 -3 45 8 48 6 49 -49 46 -27
-2 -49 14 -40 28 5 9 11 9 23 -1 10 -8 13 -9 9 -1 -10 16 11 27 46 25 20 -2
27 2 24 10 -2 7 0 21 4 30 12 22 -7 34 -19 12 -8 -14 -12 -15 -38 -1 -23 12
-31 12 -41 2z"/>
<path d="M9638 5353 c6 -2 18 -2 25 0 6 3 1 5 -13 5 -14 0 -19 -2 -12 -5z"/>
<path d="M10490 5199 c0 -5 5 -7 10 -4 6 3 10 8 10 11 0 2 -4 4 -10 4 -5 0
-10 -5 -10 -11z"/>
<path d="M10485 5131 c-16 -7 -13 -9 18 -15 38 -7 57 -2 57 15 0 11 -47 11
-75 0z"/>
<path d="M10286 5116 c-55 -17 -58 -36 -7 -36 30 0 41 4 41 15 0 10 10 15 31
15 17 0 28 4 24 10 -8 13 -39 11 -89 -4z"/>
<path d="M10415 5120 c4 -6 11 -8 16 -5 14 9 11 15 -7 15 -8 0 -12 -5 -9 -10z"/>
<path d="M9276 4888 c7 -11 32 -10 39 2 3 6 -4 9 -19 8 -13 -1 -22 -6 -20 -10z"/>
<path d="M9533 4873 c-30 -10 -10 -22 34 -20 56 2 71 24 16 24 -21 0 -44 -2
-50 -4z"/>
<path d="M9665 4870 c-3 -5 1 -10 9 -10 9 0 16 5 16 10 0 6 -4 10 -9 10 -6 0
-13 -4 -16 -10z"/>
<path d="M5150 4770 c0 -5 5 -10 11 -10 5 0 7 5 4 10 -3 6 -8 10 -11 10 -2 0
-4 -4 -4 -10z"/>
<path d="M10480 4332 c0 -12 3 -12 15 -2 8 7 15 13 15 15 0 1 -7 2 -15 2 -8 0
-15 -7 -15 -15z"/>
<path d="M9572 4241 c4 -13 18 -16 19 -4 0 4 -5 9 -11 12 -7 2 -11 -2 -8 -8z"/>
<path d="M9555 4200 c-3 -5 -1 -10 4 -10 6 0 11 5 11 10 0 6 -2 10 -4 10 -3 0
-8 -4 -11 -10z"/>
<path d="M9630 4190 c0 -5 5 -10 11 -10 5 0 7 5 4 10 -3 6 -8 10 -11 10 -2 0
-4 -4 -4 -10z"/>
<path d="M10462 4163 c-13 -3 -27 -16 -33 -30 -5 -14 -18 -27 -29 -30 -11 -3
-20 -9 -20 -14 0 -5 -10 -14 -23 -20 -15 -7 -24 -20 -25 -40 -3 -43 6 -54 29
-33 21 19 21 18 19 -48 -1 -43 1 -48 20 -48 11 0 23 7 26 15 5 11 16 13 43 9
31 -5 39 -2 57 23 24 32 42 123 24 123 -5 0 -10 6 -10 14 0 8 -17 17 -42 21
-36 7 -39 9 -16 12 26 4 43 27 32 44 -5 9 -12 9 -52 2z"/>
<path d="M10364 4152 c-14 -9 -25 -52 -13 -52 5 0 9 5 9 10 0 6 7 10 15 10 8
0 19 9 25 20 9 17 8 20 -7 20 -10 0 -23 -4 -29 -8z"/>
<path d="M10290 4040 c19 -13 30 -13 30 0 0 6 -10 10 -22 10 -19 0 -20 -2 -8
-10z"/>
<path d="M10490 3410 c-14 -4 -22 -8 -18 -9 4 -1 1 -22 -7 -48 -10 -34 -11
-50 -3 -60 6 -7 8 -28 5 -46 -3 -19 -1 -40 4 -48 5 -9 9 -10 9 -2 0 8 9 9 32
2 18 -5 36 -9 39 -9 11 0 10 82 -3 158 -12 73 -15 76 -58 62z"/>
<path d="M10290 3335 c0 -8 -9 -15 -20 -15 -17 0 -20 -7 -20 -40 0 -38 12 -52
25 -30 12 20 21 10 17 -19 -5 -35 10 -46 38 -29 26 16 44 79 34 121 l-7 32 -9
-27 c-12 -35 -28 -36 -28 -3 0 16 -6 25 -15 25 -8 0 -15 -7 -15 -15z"/>
<path d="M8320 4030 c0 -5 9 -10 21 -10 11 0 17 5 14 10 -3 6 -13 10 -21 10
-8 0 -14 -4 -14 -10z"/>
<path d="M8320 3980 c0 -5 7 -7 15 -4 8 4 15 8 15 10 0 2 -7 4 -15 4 -8 0 -15
-4 -15 -10z"/>
<path d="M8330 3890 c0 -5 9 -10 21 -10 11 0 17 5 14 10 -3 6 -13 10 -21 10
-8 0 -14 -4 -14 -10z"/>
<path d="M8350 3756 c0 -9 5 -16 10 -16 6 0 10 4 10 9 0 6 -4 13 -10 16 -5 3
-10 -1 -10 -9z"/>
<path d="M8320 3700 c0 -5 5 -10 10 -10 6 0 10 5 10 10 0 6 -4 10 -10 10 -5 0
-10 -4 -10 -10z"/>
<path d="M8535 3540 c-3 -5 3 -10 14 -10 12 0 21 5 21 10 0 6 -6 10 -14 10 -8
0 -18 -4 -21 -10z"/>
<path d="M7402 3579 c-6 -16 -7 -40 -2 -63 10 -44 19 -57 21 -30 1 10 2 30 3
44 1 14 -1 36 -5 50 l-6 25 -11 -26z"/>
<path d="M7345 3486 c-13 -9 -15 -15 -7 -20 7 -4 12 -22 12 -39 0 -64 18 -62
22 2 1 35 0 65 -3 67 -3 2 -14 -3 -24 -10z"/>
<path d="M7470 3400 c0 -46 2 -81 5 -79 7 8 9 149 1 156 -3 3 -6 -31 -6 -77z"/>
<path d="M7415 3368 c-12 -51 -13 -228 -1 -228 8 0 11 38 11 125 0 69 -1 125
-2 125 -2 0 -5 -10 -8 -22z"/>
<path d="M4620 4040 c0 -5 5 -10 11 -10 5 0 7 5 4 10 -3 6 -8 10 -11 10 -2 0
-4 -4 -4 -10z"/>
<path d="M4654 3458 c4 -13 10 -40 13 -60 6 -42 17 -48 32 -20 13 24 3 62 -20
85 -25 23 -33 22 -25 -5z"/>
<path d="M8764 3476 c-6 -24 3 -72 13 -63 9 9 10 77 2 83 -5 3 -11 -6 -15 -20z"/>
<path d="M8938 2863 c7 -3 16 -2 19 1 4 3 -2 6 -13 5 -11 0 -14 -3 -6 -6z"/>
<path d="M9682 2750 c0 -14 2 -19 5 -12 2 6 2 18 0 25 -3 6 -5 1 -5 -13z"/>
<path d="M10080 2745 c0 -8 4 -15 10 -15 5 0 7 7 4 15 -4 8 -8 15 -10 15 -2 0
-4 -7 -4 -15z"/>
<path d="M10115 2670 c3 -5 13 -10 21 -10 8 0 14 5 14 10 0 6 -9 10 -21 10
-11 0 -17 -4 -14 -10z"/>
<path d="M9625 2650 c4 -6 11 -8 16 -5 14 9 11 15 -7 15 -8 0 -12 -5 -9 -10z"/>
<path d="M9422 2630 c0 -14 2 -19 5 -12 2 6 2 18 0 25 -3 6 -5 1 -5 -13z"/>
<path d="M9628 2603 c7 -3 16 -2 19 1 4 3 -2 6 -13 5 -11 0 -14 -3 -6 -6z"/>
<path d="M9411 2584 c0 -11 3 -14 6 -6 3 7 2 16 -1 19 -3 4 -6 -2 -5 -13z"/>
<path d="M9420 2550 c0 -5 5 -10 10 -10 6 0 10 5 10 10 0 6 -4 10 -10 10 -5 0
-10 -4 -10 -10z"/>
<path d="M9600 2551 c0 -5 5 -13 11 -17 8 -4 7 -9 -2 -16 -11 -7 -9 -8 4 -4
10 3 25 6 33 6 20 0 17 16 -3 24 -10 3 -24 9 -30 12 -7 3 -13 1 -13 -5z"/>
<path d="M9760 2550 c0 -5 5 -10 10 -10 6 0 10 5 10 10 0 6 -4 10 -10 10 -5 0
-10 -4 -10 -10z"/>
<path d="M9410 2520 c-9 -6 -10 -10 -3 -10 6 0 15 5 18 10 8 12 4 12 -15 0z"/>
<path d="M9837 2519 c7 -7 15 -10 18 -7 3 3 -2 9 -12 12 -14 6 -15 5 -6 -5z"/>
<path d="M9660 2480 c0 -5 9 -10 20 -10 11 0 20 5 20 10 0 6 -9 10 -20 10 -11
0 -20 -4 -20 -10z"/>
<path d="M9720 2480 c0 -5 5 -10 10 -10 6 0 10 5 10 10 0 6 -4 10 -10 10 -5 0
-10 -4 -10 -10z"/>
<path d="M9422 2467 c-6 -7 -7 -18 -2 -26 4 -8 6 -20 3 -28 -3 -7 1 -13 10
-13 8 0 17 9 20 21 4 16 2 19 -10 15 -12 -5 -14 -1 -9 19 7 28 4 31 -12 12z"/>
<path d="M9600 2443 c0 -5 7 -18 15 -29 15 -18 15 -18 13 5 -3 23 -28 44 -28
24z"/>
<path d="M9725 2350 c4 -6 11 -8 16 -5 14 9 11 15 -7 15 -8 0 -12 -5 -9 -10z"/>
<path d="M9715 2311 c-3 -5 -1 -12 5 -16 12 -7 30 2 30 16 0 12 -27 12 -35 0z"/>
<path d="M9795 2290 c-4 -6 6 -10 22 -10 22 0 25 2 13 10 -19 12 -27 12 -35 0z"/>
<path d="M10020 2265 c0 -8 2 -15 4 -15 2 0 6 7 10 15 3 8 1 15 -4 15 -6 0
-10 -7 -10 -15z"/>
<path d="M6044 3487 c-6 -17 15 -122 23 -114 2 3 4 28 5 57 0 54 -16 87 -28
57z"/>
<path d="M9090 3385 c0 -8 5 -15 10 -15 6 0 10 7 10 15 0 8 -4 15 -10 15 -5 0
-10 -7 -10 -15z"/>
<path d="M6946 2864 c-10 -25 -7 -94 4 -94 6 0 10 6 10 14 0 7 9 16 19 19 15
3 19 13 19 36 -1 41 -15 49 -28 17 -12 -33 -19 -33 -12 -1 5 28 -3 34 -12 9z"/>
<path d="M4850 2143 c0 -6 -3 -18 -6 -27 -3 -9 -2 -16 4 -16 15 0 24 32 12 44
-7 7 -10 7 -10 -1z"/>
<path d="M4850 2070 c0 -5 5 -10 11 -10 5 0 7 5 4 10 -3 6 -8 10 -11 10 -2 0
-4 -4 -4 -10z"/>
<path d="M4845 1950 c3 -5 8 -10 11 -10 2 0 4 5 4 10 0 6 -5 10 -11 10 -5 0
-7 -4 -4 -10z"/>
<path d="M4841 1914 c0 -11 3 -14 6 -6 3 7 2 16 -1 19 -3 4 -6 -2 -5 -13z"/>
<path d="M7392 1903 c-6 -3 -10 -9 -6 -14 3 -5 -1 -9 -8 -9 -8 0 -15 -11 -16
-25 -1 -16 3 -25 13 -25 8 0 15 8 15 18 0 10 5 23 11 29 14 14 8 31 -9 26z"/>
<path d="M4170 1340 c0 -5 5 -10 10 -10 6 0 10 5 10 10 0 6 -4 10 -10 10 -5 0
-10 -4 -10 -10z"/>
<path d="M4490 1250 c0 -5 5 -10 11 -10 5 0 7 5 4 10 -3 6 -8 10 -11 10 -2 0
-4 -4 -4 -10z"/>
<path d="M4995 1250 c3 -5 10 -10 16 -10 5 0 9 5 9 10 0 6 -7 10 -16 10 -8 0
-12 -4 -9 -10z"/>
<path d="M4971 8960 c0 -40 2 -42 11 -22 8 16 8 28 0 45 -9 19 -11 17 -11 -23z"/>
<path d="M5040 8968 c0 -30 1 -30 14 -13 14 19 11 45 -5 45 -5 0 -9 -14 -9
-32z"/>
<path d="M5005 8967 c-4 -10 -5 -21 -1 -24 10 -10 18 4 13 24 -4 17 -4 17 -12
0z"/>
<path d="M5270 8943 c0 -13 5 -23 10 -23 13 0 13 11 0 30 -8 12 -10 11 -10 -7z"/>
<path d="M12451 8929 c-13 -17 -20 -33 -16 -37 8 -8 44 37 45 56 0 16 -1 15
-29 -19z"/>
<path d="M12539 8923 c-13 -15 -12 -15 9 -4 23 12 28 21 13 21 -5 0 -15 -7
-22 -17z"/>
<path d="M5085 8910 c4 -6 11 -8 16 -5 14 9 11 15 -7 15 -8 0 -12 -5 -9 -10z"/>
<path d="M12470 8900 c-6 -12 -9 -24 -7 -27 3 -2 11 5 17 17 6 12 9 24 7 27
-3 2 -11 -5 -17 -17z"/>
<path d="M5045 8850 c-3 -11 -11 -20 -16 -20 -5 0 -9 -4 -9 -10 0 -5 4 -10 9
-10 15 0 41 30 41 46 0 21 -18 17 -25 -6z"/>
<path d="M3165 8850 c-3 -5 1 -10 10 -10 9 0 13 5 10 10 -3 6 -8 10 -10 10 -2
0 -7 -4 -10 -10z"/>
<path d="M5225 8850 c-3 -5 3 -10 15 -10 12 0 18 5 15 10 -3 6 -10 10 -15 10
-5 0 -12 -4 -15 -10z"/>
<path d="M5113 8844 c4 -7 -2 -14 -14 -17 -12 -3 -18 -10 -14 -16 9 -15 30
-14 44 3 9 10 7 17 -6 27 -9 8 -14 9 -10 3z"/>
<path d="M12361 8814 c-11 -14 -18 -31 -15 -36 4 -5 15 5 26 22 24 41 17 50
-11 14z"/>
<path d="M3247 8824 c-9 -10 2 -24 19 -24 8 0 14 7 14 15 0 15 -21 21 -33 9z"/>
<path d="M12442 8808 c-7 -7 -12 -16 -12 -21 0 -5 7 -1 16 8 9 9 14 18 12 20
-2 3 -10 -1 -16 -7z"/>
<path d="M12380 8785 c-8 -9 -8 -15 -2 -15 12 0 26 19 19 26 -2 2 -10 -2 -17
-11z"/>
<path d="M1115 8759 c-11 -16 -1 -19 13 -3 7 8 8 14 3 14 -5 0 -13 -5 -16 -11z"/>
<path d="M5480 8705 c0 -14 5 -25 10 -25 6 0 10 11 10 25 0 14 -4 25 -10 25
-5 0 -10 -11 -10 -25z"/>
<path d="M12289 8723 c-9 -2 -19 -15 -22 -29 -3 -20 -2 -22 10 -12 12 10 39
50 31 47 -2 -1 -10 -3 -19 -6z"/>
<path d="M5298 8690 c-5 -36 -3 -40 34 -40 18 0 28 5 28 15 0 11 11 15 40 15
22 0 40 5 40 10 0 6 -18 10 -40 10 -22 0 -40 -4 -40 -9 0 -5 -7 -12 -15 -15
-11 -4 -19 3 -25 19 -12 33 -17 31 -22 -5z"/>
<path d="M8030 8704 c0 -8 5 -12 10 -9 6 3 10 10 10 16 0 5 -4 9 -10 9 -5 0
-10 -7 -10 -16z"/>
<path d="M5520 8690 c0 -19 3 -21 12 -12 9 9 9 15 0 24 -9 9 -12 7 -12 -12z"/>
<path d="M12357 8703 c-4 -3 -7 -11 -7 -17 0 -6 5 -5 12 2 6 6 9 14 7 17 -3 3
-9 2 -12 -2z"/>
<path d="M1235 8690 c-3 -5 -1 -10 4 -10 6 0 11 5 11 10 0 6 -2 10 -4 10 -3 0
-8 -4 -11 -10z"/>
<path d="M12290 8675 c-7 -9 -11 -18 -8 -20 3 -3 11 1 18 10 7 9 11 18 8 20
-3 3 -11 -1 -18 -10z"/>
<path d="M5620 8651 c0 -6 5 -13 10 -16 6 -3 10 1 10 9 0 9 -4 16 -10 16 -5 0
-10 -4 -10 -9z"/>
<path d="M5755 8610 c-3 -5 1 -10 9 -10 9 0 16 5 16 10 0 6 -4 10 -9 10 -6 0
-13 -4 -16 -10z"/>
<path d="M5905 8610 c-3 -5 -1 -10 4 -10 6 0 11 5 11 10 0 6 -2 10 -4 10 -3 0
-8 -4 -11 -10z"/>
<path d="M12192 8608 c-7 -7 -12 -16 -12 -21 0 -14 28 -38 34 -28 4 5 0 11 -6
14 -10 4 -11 7 0 18 23 25 8 41 -16 17z"/>
<path d="M5608 8603 c7 -3 16 -2 19 1 4 3 -2 6 -13 5 -11 0 -14 -3 -6 -6z"/>
<path d="M5870 8579 c0 -11 5 -17 10 -14 6 3 10 13 10 21 0 8 -4 14 -10 14 -5
0 -10 -9 -10 -21z"/>
<path d="M5600 8569 c0 -15 4 -19 16 -15 9 3 28 9 42 13 24 6 25 7 7 14 -39
15 -65 10 -65 -12z"/>
<path d="M5685 8560 c-4 -6 10 -10 35 -10 25 0 39 4 35 10 -3 6 -19 10 -35 10
-16 0 -32 -4 -35 -10z"/>
<path d="M12225 8534 c-9 -14 -15 -27 -13 -30 2 -2 12 10 22 26 21 37 15 40
-9 4z"/>
<path d="M12109 8499 c-9 -17 -8 -23 2 -30 17 -11 31 -7 37 9 2 8 -2 10 -13 5
-15 -5 -16 -3 -6 15 7 14 8 22 2 22 -6 0 -15 -10 -22 -21z"/>
<path d="M12180 8485 c-11 -13 -10 -14 4 -9 9 3 16 10 16 15 0 13 -6 11 -20
-6z"/>
<path d="M1625 8450 c3 -5 13 -10 21 -10 8 0 14 5 14 10 0 6 -9 10 -21 10 -11
0 -17 -4 -14 -10z"/>
<path d="M12133 8420 c-18 -20 -33 -41 -33 -46 0 -11 70 68 70 79 0 11 -2 9
-37 -33z"/>
<path d="M11990 8430 c0 -5 7 -7 15 -4 8 4 15 8 15 10 0 2 -7 4 -15 4 -8 0
-15 -4 -15 -10z"/>
<path d="M12025 8399 c-5 -14 -2 -25 6 -30 17 -11 31 -7 37 11 3 9 -1 11 -14
6 -17 -7 -17 -6 1 14 18 20 18 20 -3 20 -12 0 -23 -9 -27 -21z"/>
<path d="M6052 8388 c6 -18 28 -21 28 -4 0 9 -7 16 -16 16 -9 0 -14 -5 -12
-12z"/>
<path d="M6000 8364 c0 -8 5 -12 10 -9 6 4 8 11 5 16 -9 14 -15 11 -15 -7z"/>
<path d="M12075 8359 c-4 -6 -5 -12 -2 -15 2 -3 7 2 10 11 7 17 1 20 -8 4z"/>
<path d="M6120 8351 c0 -6 5 -13 10 -16 6 -3 10 1 10 9 0 9 -4 16 -10 16 -5 0
-10 -4 -10 -9z"/>
<path d="M6373 8320 c0 -25 2 -35 4 -22 2 12 2 32 0 45 -2 12 -4 2 -4 -23z"/>
<path d="M11965 8320 c-16 -18 -16 -20 0 -36 14 -14 18 -15 25 -3 5 8 5 16 -1
20 -5 3 -7 13 -3 22 8 22 1 21 -21 -3z"/>
<path d="M12040 8310 c-14 -10 -22 -21 -19 -24 3 -3 16 5 29 19 28 30 24 32
-10 5z"/>
<path d="M6415 8310 c3 -5 8 -10 11 -10 2 0 4 5 4 10 0 6 -5 10 -11 10 -5 0
-7 -4 -4 -10z"/>
<path d="M6326 8295 c-3 -8 -1 -15 4 -15 6 0 10 7 10 15 0 8 -2 15 -4 15 -2 0
-6 -7 -10 -15z"/>
<path d="M3831 8264 c0 -11 3 -14 6 -6 3 7 2 16 -1 19 -3 4 -6 -2 -5 -13z"/>
<path d="M11948 8199 c-56 -58 -69 -79 -48 -79 6 0 15 11 20 24 5 13 17 27 27
31 16 5 68 74 61 80 -2 2 -29 -24 -60 -56z"/>
<path d="M6694 8209 c-3 -6 -17 -9 -30 -6 -13 2 -24 0 -24 -4 0 -5 8 -9 18 -9
28 0 62 12 62 21 0 13 -17 11 -26 -2z"/>
<path d="M6820 8190 c0 -5 5 -10 10 -10 6 0 10 5 10 10 0 6 -4 10 -10 10 -5 0
-10 -4 -10 -10z"/>
<path d="M6740 8155 c0 -15 4 -24 10 -20 6 3 10 12 10 20 0 8 -4 17 -10 20 -6
4 -10 -5 -10 -20z"/>
<path d="M6704 8159 c-3 -6 -1 -16 5 -22 8 -8 11 -5 11 11 0 24 -5 28 -16 11z"/>
<path d="M6870 8110 c0 -5 7 -10 15 -10 8 0 15 5 15 10 0 6 -7 10 -15 10 -8 0
-15 -4 -15 -10z"/>
<path d="M7920 8050 c0 -5 5 -10 11 -10 5 0 7 5 4 10 -3 6 -8 10 -11 10 -2 0
-4 -4 -4 -10z"/>
<path d="M7040 8035 c0 -8 2 -15 4 -15 2 0 6 7 10 15 3 8 1 15 -4 15 -6 0 -10
-7 -10 -15z"/>
<path d="M7545 8010 c-3 -5 3 -10 14 -10 12 0 21 5 21 10 0 6 -6 10 -14 10 -8
0 -18 -4 -21 -10z"/>
<path d="M7680 7985 c0 -9 5 -15 11 -13 6 2 11 8 11 13 0 5 -5 11 -11 13 -6 2
-11 -4 -11 -13z"/>
<path d="M7737 7994 c-8 -8 1 -24 14 -24 5 0 9 7 9 15 0 15 -12 20 -23 9z"/>
<path d="M7090 7975 c0 -8 5 -15 10 -15 6 0 10 7 10 15 0 8 -4 15 -10 15 -5 0
-10 -7 -10 -15z"/>
<path d="M7533 7963 c9 -2 23 -2 30 0 6 3 -1 5 -18 5 -16 0 -22 -2 -12 -5z"/>
<path d="M11140 7840 c-7 -13 -7 -20 -1 -20 6 0 15 9 21 20 7 13 7 20 1 20 -6
0 -15 -9 -21 -20z"/>
<path d="M11040 7756 c0 -9 30 -14 35 -6 4 6 -3 10 -14 10 -12 0 -21 -2 -21
-4z"/>
<path d="M10760 7735 c0 -8 5 -15 10 -15 6 0 10 7 10 15 0 8 -4 15 -10 15 -5
0 -10 -7 -10 -15z"/>
<path d="M9431 7704 c0 -11 3 -14 6 -6 3 7 2 16 -1 19 -3 4 -6 -2 -5 -13z"/>
<path d="M9495 7700 c-3 -5 1 -10 9 -10 9 0 16 5 16 10 0 6 -4 10 -9 10 -6 0
-13 -4 -16 -10z"/>
<path d="M10665 7700 c-3 -5 3 -10 15 -10 12 0 18 5 15 10 -3 6 -10 10 -15 10
-5 0 -12 -4 -15 -10z"/>
<path d="M9280 7681 c0 -25 6 -27 13 -6 4 8 2 17 -3 20 -6 4 -10 -3 -10 -14z"/>
<path d="M9586 7676 c21 -15 30 -14 19 3 -3 6 -14 11 -23 11 -13 0 -13 -2 4
-14z"/>
<path d="M9646 7681 c-4 -7 -5 -15 -2 -18 9 -9 19 4 14 18 -4 11 -6 11 -12 0z"/>
<path d="M9475 7660 c-3 -5 1 -10 9 -10 9 0 16 5 16 10 0 6 -4 10 -9 10 -6 0
-13 -4 -16 -10z"/>
<path d="M9330 7651 c0 -5 7 -11 15 -15 9 -3 15 0 15 9 0 8 -7 15 -15 15 -8 0
-15 -4 -15 -9z"/>
<path d="M9135 7600 c4 -6 11 -8 16 -5 14 9 11 15 -7 15 -8 0 -12 -5 -9 -10z"/>
<path d="M11921 6829 c1 -68 5 -167 9 -219 5 -61 6 -18 3 120 -3 118 -7 217
-9 219 -2 2 -3 -52 -3 -120z"/>
<path d="M11933 6440 c0 -41 2 -58 4 -37 2 20 2 54 0 75 -2 20 -4 3 -4 -38z"/>
<path d="M12052 6380 c0 -19 2 -27 5 -17 2 9 2 25 0 35 -3 9 -5 1 -5 -18z"/>
<path d="M11944 6225 c0 -77 2 -107 3 -67 2 40 2 103 0 140 -2 37 -3 4 -3 -73z"/>
<path d="M12060 6152 l5 -137 3 129 c1 71 -1 133 -5 137 -4 5 -6 -54 -3 -129z"/>
<path d="M11933 5989 c-23 -28 -20 -85 6 -92 16 -4 18 1 14 42 -6 63 -7 65
-20 50z"/>
<path d="M11953 5840 c0 -25 2 -35 4 -22 2 12 2 32 0 45 -2 12 -4 2 -4 -23z"/>
<path d="M11952 5760 c0 -14 2 -19 5 -12 2 6 2 18 0 25 -3 6 -5 1 -5 -13z"/>
<path d="M12074 5485 c0 -137 2 -195 3 -128 2 67 2 179 0 250 -1 70 -3 16 -3
-122z"/>
<path d="M11945 4080 c-4 -6 -14 -9 -23 -8 -13 2 -18 -6 -20 -37 -2 -21 0 -55
4 -75 l7 -35 11 26 c6 14 17 24 24 22 9 -4 12 12 12 56 0 61 -3 70 -15 51z"/>
<path d="M12213 3895 c0 -27 2 -38 4 -22 2 15 2 37 0 50 -2 12 -4 0 -4 -28z"/>
<path d="M12207 3583 c-4 -131 -3 -278 2 -328 6 -68 8 -9 10 238 0 180 -1 327
-3 327 -2 0 -6 -107 -9 -237z"/>
<path d="M11980 3673 c0 -16 -3 -63 -5 -106 -3 -43 -1 -86 5 -95 6 -12 9 21
10 106 0 67 -2 122 -5 122 -3 0 -5 -12 -5 -27z"/>
<path d="M12101 3437 c-1 -117 2 -176 9 -172 12 7 12 274 0 320 -4 18 -8 -44
-9 -148z"/>
<path d="M12116 3212 c-9 -15 -9 -79 0 -487 3 -154 10 -284 15 -289 12 -13 12
-11 9 234 -4 321 -14 557 -24 542z"/>
<path d="M12133 2339 c-9 -11 -10 -81 -5 -279 7 -257 8 -266 30 -288 l22 -22
0 37 c0 73 -22 468 -28 517 -6 40 -9 46 -19 35z"/>
<path d="M14690 1725 c-12 -20 -20 -38 -17 -41 2 -3 14 12 26 32 28 48 20 56
-9 9z"/>
<path d="M12161 1704 c0 -11 3 -14 6 -6 3 7 2 16 -1 19 -3 4 -6 -2 -5 -13z"/>
<path d="M12145 1648 c-3 -18 -5 -56 -3 -83 3 -43 5 -47 14 -30 17 29 22 137
7 142 -7 3 -14 -10 -18 -29z"/>
<path d="M12446 1614 c-4 -9 -4 -19 -1 -22 2 -3 7 3 11 12 4 9 4 19 1 22 -2 3
-7 -3 -11 -12z"/>
<path d="M12387 1407 c-4 -32 -3 -65 1 -74 13 -23 21 31 13 87 l-7 45 -7 -58z"/>
<path d="M12590 1445 c0 -10 -11 -15 -35 -15 -24 0 -35 -5 -35 -15 0 -8 -4
-15 -10 -15 -11 0 -13 -30 -4 -54 3 -9 11 -16 17 -16 6 0 28 -12 48 -26 40
-28 53 -26 62 6 3 11 1 18 -4 14 -5 -3 -9 10 -9 28 0 18 -7 41 -14 51 -8 10
-12 27 -9 37 3 11 3 20 -1 20 -3 0 -6 -7 -6 -15z"/>
<path d="M12655 1378 c-4 -24 -2 -54 3 -68 8 -20 10 -12 10 43 1 37 -1 67 -3
67 -2 0 -7 -19 -10 -42z"/>
<path d="M14690 1348 c0 -12 3 -18 7 -14 11 10 12 36 2 36 -5 0 -9 -10 -9 -22z"/>
<path d="M12766 1250 c3 -30 10 -59 15 -65 7 -7 8 3 3 30 -13 73 -24 94 -18
35z"/>
<path d="M12671 1264 c0 -11 3 -14 6 -6 3 7 2 16 -1 19 -3 4 -6 -2 -5 -13z"/>
<path d="M12906 1118 c-17 -120 -18 -153 -6 -142 6 6 14 50 17 98 5 91 -1 116
-11 44z"/>
<path d="M13200 1016 c0 -8 -5 -16 -11 -18 -20 -7 0 -61 39 -110 40 -49 80
-66 98 -42 10 12 13 11 18 -11 4 -16 13 -25 25 -25 11 0 21 -3 23 -7 2 -5 15
-18 29 -31 l26 -23 -1 70 c0 38 -3 68 -8 65 -4 -2 -12 4 -17 15 -6 10 -25 33
-42 51 -32 31 -48 28 -49 -7 0 -25 -19 -12 -25 17 -4 17 -11 28 -16 24 -5 -3
-12 3 -16 13 -9 23 -23 33 -50 33 -13 0 -23 -6 -23 -14z"/>
<path d="M13489 865 c-4 -51 10 -147 20 -141 4 3 14 -6 21 -19 7 -13 19 -26
26 -29 19 -7 17 71 -2 101 -8 12 -14 34 -14 48 0 14 -4 24 -9 23 -5 -2 -17 6
-25 17 l-15 20 -2 -20z"/>
<path d="M13646 736 c-7 -35 0 -82 15 -101 5 -5 20 -23 33 -40 l25 -30 1 58
c0 42 -4 59 -15 63 -8 4 -15 17 -15 30 0 13 -4 24 -10 24 -5 0 -10 7 -10 15 0
29 -18 15 -24 -19z"/>
<path d="M13810 628 c1 -51 16 -104 40 -140 l21 -33 -4 68 c-3 43 -11 75 -21
86 -9 10 -16 23 -16 29 0 6 -4 14 -10 17 -6 4 -10 -7 -10 -27z"/>
<path d="M14000 533 c0 -7 -7 -13 -15 -13 -19 0 -19 -36 0 -74 8 -15 12 -32 9
-37 -3 -5 2 -6 10 -3 11 4 16 0 16 -11 0 -9 7 -24 17 -33 15 -15 16 -13 10 43
-5 52 -45 162 -47 128z"/>
<path d="M14162 401 c-11 -6 -11 -17 -2 -50 12 -46 15 -48 37 -26 8 9 18 14
21 11 3 -3 -7 -17 -21 -30 -29 -27 -34 -38 -14 -31 15 6 28 -4 43 -29 23 -43
31 -27 19 37 -21 111 -44 143 -83 118z"/>
<path d="M14371 309 c-1 -9 9 -48 21 -85 18 -55 23 -64 26 -42 2 15 -3 42 -11
60 -8 18 -19 44 -25 58 -7 16 -11 19 -11 9z"/>
<path d="M14594 153 c-4 -16 -6 -34 -5 -42 1 -7 -2 -10 -8 -6 -21 13 -11 -21
15 -48 l26 -28 12 23 c7 13 18 33 24 44 10 19 7 26 -18 53 -17 17 -32 31 -34
31 -2 0 -7 -12 -12 -27z"/>
<path d="M9560 130 c0 -5 5 -10 10 -10 6 0 10 5 10 10 0 6 -4 10 -10 10 -5 0
-10 -4 -10 -10z"/>
<path d="M9520 89 c0 -22 13 -25 29 -5 9 11 7 15 -9 19 -15 4 -20 0 -20 -14z"/>
<path d="M9933 75 c-18 -24 -19 -24 -60 -10 -23 8 -61 12 -85 10 -24 -2 -72
-5 -108 -5 -77 -2 -130 -16 -130 -36 0 -8 -10 -14 -24 -14 -14 0 -28 -5 -31
-10 -4 -7 77 -10 236 -10 213 0 240 2 229 15 -7 8 -20 15 -29 16 -13 0 -13 2
-1 6 16 7 49 44 50 56 0 17 -30 5 -47 -18z"/>
<path d="M14776 50 c4 -25 8 -46 9 -48 2 -2 35 -2 75 0 l72 3 -57 30 c-31 16
-63 30 -72 31 -9 2 -20 9 -25 16 -5 8 -6 -6 -2 -32z"/>
<path d="M9092 40 c-28 -27 -28 -40 1 -40 20 0 24 5 24 30 0 17 -1 30 -2 30
-1 0 -11 -9 -23 -20z"/>
<path d="M9446 19 c-12 -11 -15 -19 -7 -19 13 0 41 24 41 34 0 11 -15 5 -34
-15z"/>
<path d="M8999 14 c-10 -12 -6 -14 24 -14 26 0 35 4 31 13 -6 18 -40 19 -55 1z"/>
</g>
</svg>
